/* XPM */
static char *c_[] = {
/* columns rows colors chars-per-pixel */
"64 64 255 2",
"   c #060103",
".  c #0A0106",
"X  c #0E0109",
"o  c #0C0C05",
"O  c #1D0202",
"+  c #12010D",
"@  c #18050A",
"#  c #061603",
"$  c #1B0214",
"%  c #160319",
"&  c #1B051D",
"*  c #170314",
"=  c #17160A",
"-  c #220502",
";  c #250A03",
":  c #2D0C03",
">  c #290508",
",  c #370805",
"<  c #3E1905",
"1  c #371507",
"2  c #24091D",
"3  c #260919",
"4  c #371518",
"5  c #2E1113",
"6  c #13270F",
"7  c #302B13",
"8  c #1D0821",
"9  c #230C23",
"0  c #2B0D22",
"q  c #2B142B",
"w  c #2B1328",
"e  c #351729",
"r  c #331C32",
"t  c #3A1E32",
"y  c #301124",
"u  c #3B2136",
"i  c #3B243A",
"p  c #3B243A",
"a  c #2D3626",
"s  c #450705",
"d  c #570907",
"f  c #431C04",
"g  c #471906",
"h  c #551C07",
"j  c #4F1016",
"k  c #690217",
"l  c #6A110D",
"z  c #4A2204",
"x  c #4E2909",
"c  c #492409",
"v  c #522C0D",
"b  c #58240A",
"n  c #482718",
"m  c #562C14",
"M  c #5A3513",
"N  c #5A3618",
"B  c #44311D",
"V  c #62290C",
"C  c #623D1B",
"Z  c #673716",
"A  c #6A2E12",
"S  c #79082A",
"D  c #7C0C30",
"F  c #74142C",
"G  c #472628",
"H  c #4A3424",
"J  c #573A26",
"K  c #43293E",
"L  c #462738",
"P  c #583539",
"I  c #542D31",
"U  c #6D352E",
"Y  c #451D28",
"T  c #374937",
"R  c #314330",
"E  c #6A421D",
"W  c #72431F",
"Q  c #564732",
"!  c #684529",
"~  c #754929",
"^  c #6A4C34",
"/  c #664A36",
"(  c #6D523C",
")  c #74543C",
"_  c #7A5437",
"`  c #764C34",
"'  c #442C42",
"]  c #492E43",
"[  c #4B3146",
"{  c #4D354A",
"}  c #4C344A",
"|  c #543A4D",
" . c #573948",
".. c #553D53",
"X. c #593E51",
"o. c #683C45",
"O. c #3F5141",
"+. c #5B4154",
"@. c #5D455A",
"#. c #584157",
"$. c #4C584A",
"%. c #68444A",
"&. c #7A5A44",
"*. c #624456",
"=. c #61465A",
"-. c #63495E",
";. c #6B4C5D",
":. c #6A4854",
">. c #77545A",
",. c #714E4F",
"<. c #586658",
"1. c #644D62",
"2. c #6A4E62",
"3. c #6C5164",
"4. c #6C546A",
"5. c #675066",
"6. c #735564",
"7. c #765867",
"8. c #74586B",
"9. c #7A5A6A",
"0. c #755869",
"q. c #755B72",
"w. c #795E75",
"e. c #704F60",
"r. c #63746A",
"t. c #7D6379",
"y. c #7B6076",
"u. c #6C7C75",
"i. c #73706C",
"p. c #66675C",
"a. c #860A2A",
"s. c #931432",
"d. c #AD1B3B",
"f. c #96392A",
"g. c #8B352F",
"h. c #89241E",
"j. c #85583A",
"k. c #995534",
"l. c #8C4D31",
"z. c #A25738",
"x. c #AB5C32",
"c. c #B66B2F",
"v. c #A36227",
"b. c #923446",
"n. c #B92546",
"m. c #AE2F4B",
"M. c #B91F40",
"N. c #C52144",
"B. c #CD2B4C",
"V. c #C72748",
"C. c #CA3755",
"Z. c #D33452",
"A. c #D83B58",
"S. c #D0304E",
"D. c #C11F42",
"F. c #845D43",
"G. c #875759",
"H. c #92534F",
"J. c #A95747",
"K. c #AE584A",
"L. c #8B654B",
"P. c #886349",
"I. c #896756",
"U. c #956D52",
"Y. c #976958",
"T. c #9C7257",
"R. c #926A4D",
"E. c #A57959",
"W. c #B36C50",
"Q. c #855D66",
"!. c #8A6469",
"~. c #966866",
"^. c #81667D",
"/. c #83697F",
"(. c #886775",
"). c #987373",
"_. c #B67867",
"`. c #A87977",
"'. c #B87A76",
"]. c #A87067",
"[. c #B35D63",
"{. c #C37C77",
"}. c #C46154",
"|. c #C0793F",
" X c #73827D",
".X c #AF805F",
"XX c #B58559",
"oX c #B88665",
"OX c #B48379",
"+X c #8E827D",
"@X c #C48872",
"#X c #EDB868",
"$X c #D29A5B",
"%X c #F9C975",
"&X c #F8C26A",
"*X c #8B6E83",
"=X c #866B80",
"-X c #8E7186",
";X c #92768B",
":X c #96798C",
">X c #9B7D93",
",X c #977A90",
"<X c #A47E83",
"1X c #C17F81",
"2X c #788580",
"3X c #7D938C",
"4X c #9F8197",
"5X c #978C8D",
"6X c #AA8588",
"7X c #B68988",
"8X c #A3849C",
"9X c #A88899",
"0X c #BC9494",
"qX c #B89597",
"wX c #B59092",
"eX c #AB8BA3",
"rX c #A889A1",
"tX c #B492AB",
"yX c #B89AA8",
"uX c #B493AC",
"iX c #B5A7AA",
"pX c #C98884",
"aX c #DB8E8B",
"sX c #D38A88",
"dX c #CA9489",
"fX c #D59788",
"gX c #C59996",
"hX c #DC9492",
"jX c #D89A95",
"kX c #D3A39A",
"lX c #C7A7A8",
"zX c #D9BAB6",
"xX c #D5AFAB",
"cX c #E6BCB5",
"vX c #E5B1AA",
"bX c #E0A895",
"nX c #E7C3BC",
"mX c #F2C5BC",
"MX c #E4C3AD",
"NX c #D8C8C7",
"BX c #E8CAC5",
"VX c #F7D5CC",
"CX c #FBDDD3",
"ZX c #F5DBD3",
"AX c #EED2CC",
"SX c #FAE0D6",
"DX c #FAE2D8",
"FX c #F4E1DD",
"GX c #ECE0DE",
"HX c #FAEAE8",
"JX c #FCF4F2",
"KX c #F5F2F0",
"LX c #FBEFED",
"PX c #C2E8DE",
"IX c #BCCDC8",
/* pixels */
"~ l.l.l.k.k.k.k.k.f.z.z.J.H.J.K.@XbXgXfXbX@X7XuXuXuXuXuXuXtXtXtXtXtXtX>XtXtXzXtXuXtXtXtXeXeX>XI.~.%XXX) ( ( ^ Q ! Q H J H H B H ",
"v.l.k.k.k.z.z.k.k.k.J.k.J.J.z.K.dX$X@XbX7XuXuXtXuXuXtX>X8X4.rXtXeXtXtXtXtX>XtXtXtXtXtXtXeXrXrX9X#X%X&X&XR.&X&X( / ! ! J H m H 7 ",
"W W E W ~ ~ l.~ l.l.l._ k.W.x.K.dXfXbX7X4XeXuXtX>XtX>XtXtXrXeXeXtX>XtXtXtXtX4XeXeXeXtXrXrXrX8X8XbX%X%X$X&X&X&X#X/ ! ! J J J H H ",
"Q Q / ^ $.( &.&.&.&.I.I.U.K.K.W.fXbX.XrXtX>X>X>XtX>XeXeXeXeXeXrX=X>X>X>X8XrXrXrX4X8XrXrX8X8X4X4X#X%X#XT.).%X|.&XL.^ ^ ! J J J H ",
"Q %.( ( &.) &.&.&.&.I.I.Y.k.c.W.fX7XrX8XtXtX>X>Xq.4.eX>XeX>X>X>XrXe.=X>X>X8X4X8X>X8X4X4X4X4X4X>XdX%X#X;X;X$X#XR._ ) ! ^ Q Q J H ",
"^ ^ ( <.) &.&.L.L.I.I.I.R.k.c.W.7X>X>X>X>X>X>X6.X.;X8X>X>X,X>X>X,X,XX.=X>X>X>X>XeX,X4X>X>X,X4X>X:X%X%X-X-X!.F.&.) ) ) ^ ! ! Q J ",
"^ ( ( &.j.&.L.L.I.I.U.I.R.J.K.[.>X>X>X>X>X>X,X1.,X>X:X;X;X*X-X*X-X*Xq. .>X;X-X,X,X,X,X,X;X>X4X:X;X%XE././.t.P.F.&._ ) ) ^ ^ / Q ",
"^ ( ( ) &.&.U.R.L.U.U.I.Y.K.W.yXyX>X>X,X,X,X4.;X-X;X4.-X*Xq.q.=X=X;X>X..q.-X*X-X;X;X-X-X*X/.t.2.@.(.e.t.t.i._ j.~ ~ ~ W ~ ~ ! C ",
"^ ) ) &.j.&.P.L.L..XT.U.T.K.).,X>XtXuXuXuXuXtXrX*X-Xq.t.t.| ..q.} q.w.q.' t.^.=X^.=X=X^.| } ..t.w.q...4.q.q.U A V V V V b b h h ",
"_ ) ) &.F.F.&.L.&..XU.E.E.(.=X=X*X*X-X-X*X=X^.^.^.t.w.t.q.' [ 4.] 4.q.4...-.t.t.^./.q.w.y.q.q.4.4.q.] 4.5.4.I A V b h b l h h h ",
") _ P.j._ L.L.&.L. X.X.X~.^./.=X=X=X=X/.=Xw.=X=Xq.4.q.q.4.' p -.' #.4.4.} ] q.q.w.t.q.q.q.4.1.-.1.5.p | | 1.K A V V h b h h g g ",
"F.j.P.j.L.R.R.U..X.X.X+X!.H.^./.=X^././.t.q.w.t.q.4.q.4.5.p ' @.' ' 1.5.#.] 5.q.q.w.q.q.q.} -.1.] 1.p K -.' ' I V V V b b b b h ",
"P.P.L.L.L.U.U.c.L..XU.(.E.^.^./././.^.t.4.t.=X@.4.q.q.5.5.p p } K p } 1.5.K ..q.q.4.q.5...4.-.#.p @.} t p @.r t N m M m v b b c ",
"R.U.U.U.U.T.T.T.E.!.~.oX~.^.=X^.^.t.t.q.5.q.q.' 4.4.5.5.#.r r K i t i ..1.} ' e.4.q.4.@.@.1.-.r r #.#.r r r | } u ! C J N M v x ",
"U.U.XXT.U.E.E.E.G..XoXoX^.t.t.t.t.w.w.4.4.4.} ' 5.5.1.1.#.p p ' t K t r 1.-.i ;.4.4.5...@.-.p r r } ..r t q q ] +.P ! C C C M M ",
"XXT.XX.X.X.XU.E.oXoXoX@Xw.t.t.t.q.q.4.' q.4.i i 1.1.#.@.} r r u t G.L r } 1.p ' 1.5.5.} @.p q u q ' } p q q q 9 r ..+.U Z M M V ",
".XXX.XoXoXoXoXoXoXoX@X@Xt.t.t.t.q.q.1.' 4.' t r @.4.} @.} r r t t >.~.r r #...K ;.1.1.} @.t q r q p } ' q q q q 9 q K %. .Z V v ",
".X.XXXoXoX$X@XoX@XoX@X].t.t.w.q.4.4.p #.5.r i t Q.2.' @.} r r t t :.hXY q r #.t -.=.1.} #.r q q 9 r p p q q q q 9 9 9 e M P P h ",
"oX.XoXoXXX$XoX$X$X@X@Xt.w.q.q.4.4.1.r 1.} r t ] pX2.r @...q r t o.o.hXpXr q r r | 1.@.#...q q q 9 q p r 9 q 9 t 9 9 9 2 U C ! U ",
"E.W.W._.W.W.W.W.W._.Q.y.q.q.4.4.5.p q 1.r ' t 7XVX:.r ' #.q q i sXL H.[.o.r r q L @.@.#...q q w 0 q p 9 9 8 9 9 >.q 9 9 9 P F.F.",
"K.K.K.K.K.K.J.K.m.G.w.w.8.q.4.5.1.q r 1.r ~.L aXgX] P e ..r r t aXU cXhXhXI q q r 2.-.#...9 q 9 w 9 r 9 9 9 9 9 !.I.0 2 8 2 P G.",
"z.z.z.k.f.l.z.J.G.y.w.9.~.4.1.1...q r -.u jX,.nX!.VX7Xt q q r e pX`.pXdXkXpXY w q 1.@.#.} 9 y 9 9 8 r 8 8 8 8 8 P T.&.5 8 8 0 4 ",
"< z < < m g z e.9.>.L.T.G.4.] @.p q r @.(.AXyXAXJXJXqX(.e r r e G.hX@XVXVXbXaXY q -.-.X.' 9 e 9 0 8 q 8 8 8 8 9 q T.~.I.2 & 2 ,.",
"x 7 M g U g m C ! _ P.U.6.1.r @.q 9 r #.gXlXwXGXHXJXLX6XQ.r r <X,.'.sX` ; @ G ].e X.1.=.p 8 q 9 2 8 9 8 8 8 8 e 9 ,.U.U.&.3 & 2 ",
" X+X X/ g.d M N N ^ &.L.3.1.r #.q 9 q @.AXLXzXJXJXJXJXZXCXCX%.CXxXvXG.,.7 6 a lX,.o.2.@.q 8 w 9 8 8 & % 8 8 &  .E.I &.T.L.` P $ ",
"+X X X^ f.l M N N ^ &.&.H.:.0 } 8 9 r e.HXJXZXJXJXKXJXZXDXDXDXDXCXSXCX>.= o = LXKXG.-.*.9 8 K 4 & % 8 % 8 8 2 o.U.R.R.R.l.W P.F.",
"3X X$./ g.l v N N Q ^ ) H.g.y ..8 9 p (.JXJXJXJXJXNXJXBXCXDXDXDXDXSXDX7 o   6 JXJXQ.-.=.8 8 L [.8 8 8 8 9 4 g Y V V Z V V V V V ",
" X X XQ g.h x N H ! ! _ H.k.0 ..9 8 t BXJXJXJXJXJXzXJXAXCXDXDXDXDXDXDXT O.$.T LXDXH.X.-.8 % I aX8 8 & % 9 h h , b h h h h h g d ",
"2X Xr.^ f.h v N N N ! ) k.v.g { 9 9 q LXJXJXJXJXJXzXKXNXDXDXDXSXSXDXSXiXPXPX5XJXjXG.e.} 8 8 o.sX0 % 8 % 9 - - : - O O O O - O O ",
"2X Xu./ f.V x M M N N ! l.v.v.e 9 9 0 AXLXLXJXHXAXlXKXNXCXDXDXSXDXSXSXFXGXNXZXDXhXG.1.q % & ~.aX3 % 9 % & - O O O O O O O O O O ",
"2X Xr.Q f.l x v v M N ! l.v.v.e 0 & 2 w.HXFXHXLXJXLXJXlXnXzXxXBXSXDXDXSXSXSXSXSXhX:.-.8 % 8 '.U & % & & * @ O O O O O O O O O O ",
"2X2Xr.Q f.h c v v v N J j.v.c.L [ 2 9 q JXJXLXFXBXBXCXDXSXSXDXZXzXzXVXSXSXSXDXVXhX;.' 8 % 8 G.$ * % 2 O 3 > - O O O O O O O O X ",
"2X Xr.Q f.l c x x x M C l.c.c.o.*.e 9 0 CXCXCXCXCXDXCXSXDXSXSXSXDXDXBXzXzXCXDXjXaX;.8 8 % % $ + % % 3 - O O O O O O O O O O O O ",
"2X2Xr./ f.l c x x v N C j.|.|.:.@.9 0 0 CXCXCXSXSXSXDXDXSXDXDXSXDXDXSXSXDXzXzX'.].P & 8 * 2 % $ % 3 3 O - O O O O - O O O O O O ",
" Xr.r./ f.l c x x x v N L.c.|.=.@.8 9 y nXSXSXSXSXSXSXSXDXSXSXSXDXDXDXSXDXCXvXaXG.9 p % % 2 * - * - > - O - - - ; - - O O O O O ",
" X Xr.Q f.l c x x x v M Y.XXj.*...& 2 1 m CXSXSXSXDXDXSXDXSXSXSXDXSXSXSXSXCXhXG.] [ % % $ $ > ; ; : ; ; ; ; ; ; ; ; ; ; - - - - ",
"r.r.r.Q vXOXb x x x x M 7X@X@X:.[ & 4 1 1 ^ CXSXSXSXSXSXSXZXSXDXSXSXDXSXDXjXsX[.e.$ $ 0 4 > ; ; : : : : : : : : : : : : : : ; : ",
"r.r.p.Q CXCX! x z z z v OX$XXX:.] 2 1 < < < n xXSXSXDXSXSXSXSXSXZXSXSXDXmXhXaXQ.9 8  .Y 4 1 : : : 1 : 1 1 : 1 1 1 1 1 : 1 1 1 : ",
"r.r.<.Q vXCXVXN z z z x ].W.|.,.[ L ,.9.7.>. .I P qXCXCXSXSXSXzXSXBXCXSXhXsX{.Y I pX:Xy 2 3 I.%.> 2 3 2 2 3 1 < < 1 1 < 1 < 1 1 ",
"r.r.<.Q k.CXCXCXvX! m v H.W.|.Y.| 6.9.9.9.q.9.9.9.9.t %.CXSXSXzXSXDXDXBX7XhXY.9.0XwXy 0 2 e wX2 3 2 9 ]  .0 3 < < < < < < < < < ",
"DXSXSXCXCXSXcXCXSXSXCX@XR.W.|.W.;.7.9.9.9.9.9.i.9.Q.t e (.!.zXzXxXkXMXzXMXMXVXCX0X[ 0 2 2 :XI & 9 3.6.:.u e 0 3 g z f f f g f g ",
"SXCXBXnXZXSXkXmXSXSXCXCXK.W.|.H.9.7.7.0.7.9.zXAXCXSXCXCXSXCXSXSXSXSXSXSXSXSXSXSXZXe 2 2 4 qX2 2 6.e.{ -.X.0 3 2 g z z z h h z z ",
"<.+XDXSXSXZXgXAXSXSXDXDX1X}.W.G.9.7.7.9.BXZXSXSXSXSXCXCXSXCXCXSXCXSXSXCXSXSXSXSXCXgX0 0 :.(.2 ;.6.7.8.8.6.6.0 3 4 x b b x b x b ",
"$.<.DXSXSXSXSXVXSXSXDXCXaXW.W.9.9.9.7.9.9.!.5X5X6XyXzXNXnXZXCXCXSXDXSXCXSXSXSXSXSXCX).y 0XL K 7.>.8.7.7.6.8.*.2 3 M v v v b x x ",
"O.$.HXSXSXSXAXzXFXSXDXCXhX].W.7.9.7.7.9.7.9.8.9.0.0.).~.4 `.mXCXSXSXCXSXSXSXSXSXSXDXVXU gXe 7.;.7.7.6.8.8.7.6.3 2 M M M M v v M ",
"O.O.iXSXVXCXBXnXDXSXDXBX{.].k.9.9.7.7.7.7.9.8.9.9.Q.~.D F F BXCXCXSXCXSXSXSXSXSXSXSXSXmX<X7.e.7.7.6.7.p.7.7.6.3 & U M M M M M M ",
"O.O.O.SXVXVXcXBXSXCXCXmXsX'.g.0.7.9.7.7.7.7.9.9.b.A.A.D D D vXnXCXSXSXSXSXSXSXSXSXCXSXSXG.6.7.7.8.7.8.7.8.6.6.0 $ M N C M M M M ",
"O.O.T zX{.{.VXCXCXCXCXaXsX7Xo.7.7.6.e.7.7.7.9.m.A.A.A.S S D F VXSXCXSXCXSXSXSXSXSXCXSXCX[.e.6.6.7.8.p.6.6.3.8.2 $ N C C M M M M ",
"O.O.R H aXsXjXBXcXhXpX{.1X0Xo.6.8.6.;.6.6.e.C.A.A.A.A.C.a.D D pXCXDXCXCXCXSXSXCXCXSXSXCXpX6.6.8.6.8.6.3.8.6.4.9 & ! E E C N C M ",
"T O.R < W.{.'.'.sXsXaX'.wXwXY :.6.6.:.6.9.m.A.A.A.A.A.A.a.D a.F cXCXCXCXCXZXVXCXCXCXCXCXhX<X).:.-.5.3.;.6.3.2.8 & ! E E E C C C ",
"R R R 1 l d J ].aXaX'.0XwX:.3 t :.e.X.e.H.C.Z.A.A.A.A.d.S n.m.b.C.VXCXVXCXCXCXCXCXZXCXCX1XwX9Xy [ K 2.e.3.K & * > ~ E W E E E C ",
"R R 6 1 l d J 6X].'.7X7Xe.3 $ 2 ;.;.;.;.K.Z.Z.Z.Z.Z.d.S A.S.a.b.Z.s.F m.K.~.zXzXBXFXHXLXyX<Xe.[ & $ L 2.y  .3 $ G _ ~ E W ~ _ _ ",
"6 6 6 1 d d J wX7X7X7X<XX.+ $ $ t X.;. .1.C.Z.Z.Z.S.n.Z.Z.V.s.m.Z.V.k D ,.e.ZXCXDXZXxX/.-.r $ $ + + e [ -.1.9 @ _ ` _ ~ W W ~ ^ ",
"6 6 6 5 l s  .zXFXwX<X2.$ + + + ] [  .y ;.b.Z.Z.Z.Z.S.Z.S.a.Z.n.S.Z.a.S b.;.;.;. .L 9 $ % * + @ + + 3 -.-.-.$ + j.j.W E v.W &.p.",
"6 6 6 : d s G ' DXOXo.X.+ % X + t 0 L 3 2.2.C.S.S.S.B.S.N.B.B.s.S.S.M.S m.:.=.;.-.9 + + + X X + + X $ 2.-.X.* $ j.j._ E W W p.&.",
"# 6 6 : d P @ $ t.=.@.* X + X + & *.+ $ e.;.B.S.B.B.B.B.B.S.B.d.B.B.B.V.V.=.;.2.-.-.2 + + + X X X X + *.@.| + $ j.j._ W _ W p.p.",
"# 6 # ; d u 0  .@.@.* X . . . X @ +.+ $ X.-.B.B.B.B.B.B.V.B.a.V.n.B.B.B.B.X.X.=.=.*.@.| + % X X X X + +.+.& X > P.j._ E E E p.a ",
"# # # ; G X.X.+.| X X X . X . . X  .+ + o.o.b.V.V.N.B.V.B.D.k V.D.B.V.V.V.o.X.;.=.*.+.@.@.+ . . . . X +.#.% X 4 j.j._ E E E p.H ",
"6 # # - j  .{ & . . . .   . . . . i X y o.X.o.s.N.B.B.N.d.k a.V.B.D.V.B.N.o.*.+.+.+.+.+.+.2   . . . X +.... . H &.v._ ~ E E p.<.",
"6 # # O s | | X .   .   .     .   @ . 3 n.b.M.N.N.D.D.a.k D.s.n.N.N.N.N.k j +.+.+.+.+.+.+.r       . X $.'     _ j.P._ E _ E <.p.",
"# # # O s 4 | + .                 @ . X m.d.D.N.N.N.N.d.D.N.s.s.D.N.D.l k j +.+.+.+.+.+.+.p .       X +.]   . ` ^ ^ ! E ~ C &.<.",
"# # # O , , I p .                 . . .  .o.F N.N.D.N.D.N.N.h.G.N.N.N.N.s.j  .| | X. .X. .p         X X } . . ; - - O @ c x c n ",
"#   # O , , < { .                 . . o ......U D.N.N.D.D.D.H.5 m.N.N.N.S , [  .+.X.| X.{ '         .   +   o 7 = = ; = = 7 4 4 ",
"# # # @ , - 1 L e                   . . | | ..| L m.N.N.N.d.$ P G D.N.k     9 | | | +.| +.p           .     = 1 ; O O O @ @ @ @ "
};
