/* XPM */
static char *c_[] = {
/* columns rows colors chars-per-pixel */
"64 64 255 2",
"   c #060103",
".  c #0A0106",
"X  c #0E0109",
"o  c #0C0C05",
"O  c #1D0202",
"+  c #12010D",
"@  c #18050A",
"#  c #061603",
"$  c #1B0214",
"%  c #160319",
"&  c #1B051D",
"*  c #170314",
"=  c #17160A",
"-  c #220502",
";  c #250A03",
":  c #2D0C03",
">  c #290508",
",  c #370805",
"<  c #3E1905",
"1  c #371507",
"2  c #24091D",
"3  c #260919",
"4  c #371518",
"5  c #2E1113",
"6  c #13270F",
"7  c #302B13",
"8  c #1D0821",
"9  c #230C23",
"0  c #2B0D22",
"q  c #2B142B",
"w  c #2B1328",
"e  c #351729",
"r  c #331C32",
"t  c #3A1E32",
"y  c #301124",
"u  c #3B2136",
"i  c #3B243A",
"p  c #3B243A",
"a  c #2D3626",
"s  c #450705",
"d  c #570907",
"f  c #431C04",
"g  c #471906",
"h  c #551C07",
"j  c #4F1016",
"k  c #690217",
"l  c #6A110D",
"z  c #4A2204",
"x  c #4E2909",
"c  c #492409",
"v  c #522C0D",
"b  c #58240A",
"n  c #482718",
"m  c #562C14",
"M  c #5A3513",
"N  c #5A3618",
"B  c #44311D",
"V  c #62290C",
"C  c #623D1B",
"Z  c #673716",
"A  c #6A2E12",
"S  c #79082A",
"D  c #7C0C30",
"F  c #74142C",
"G  c #472628",
"H  c #4A3424",
"J  c #573A26",
"K  c #43293E",
"L  c #462738",
"P  c #583539",
"I  c #542D31",
"U  c #6D352E",
"Y  c #451D28",
"T  c #374937",
"R  c #314330",
"E  c #6A421D",
"W  c #72431F",
"Q  c #564732",
"!  c #684529",
"~  c #754929",
"^  c #6A4C34",
"/  c #664A36",
"(  c #6D523C",
")  c #74543C",
"_  c #7A5437",
"`  c #764C34",
"'  c #442C42",
"]  c #492E43",
"[  c #4B3146",
"{  c #4D354A",
"}  c #4C344A",
"|  c #543A4D",
" . c #573948",
".. c #553D53",
"X. c #593E51",
"o. c #683C45",
"O. c #3F5141",
"+. c #5B4154",
"@. c #5D455A",
"#. c #584157",
"$. c #4C584A",
"%. c #68444A",
"&. c #7A5A44",
"*. c #624456",
"=. c #61465A",
"-. c #63495E",
";. c #6B4C5D",
":. c #6A4854",
">. c #77545A",
",. c #714E4F",
"<. c #586658",
"1. c #644D62",
"2. c #6A4E62",
"3. c #6C5164",
"4. c #6C546A",
"5. c #675066",
"6. c #735564",
"7. c #765867",
"8. c #74586B",
"9. c #7A5A6A",
"0. c #755869",
"q. c #755B72",
"w. c #795E75",
"e. c #704F60",
"r. c #63746A",
"t. c #7D6379",
"y. c #7B6076",
"u. c #6C7C75",
"i. c #73706C",
"p. c #66675C",
"a. c #860A2A",
"s. c #931432",
"d. c #AD1B3B",
"f. c #96392A",
"g. c #8B352F",
"h. c #89241E",
"j. c #85583A",
"k. c #995534",
"l. c #8C4D31",
"z. c #A25738",
"x. c #AB5C32",
"c. c #B66B2F",
"v. c #A36227",
"b. c #923446",
"n. c #B92546",
"m. c #AE2F4B",
"M. c #B91F40",
"N. c #C52144",
"B. c #CD2B4C",
"V. c #C72748",
"C. c #CA3755",
"Z. c #D33452",
"A. c #D83B58",
"S. c #D0304E",
"D. c #C11F42",
"F. c #845D43",
"G. c #875759",
"H. c #92534F",
"J. c #A95747",
"K. c #AE584A",
"L. c #8B654B",
"P. c #886349",
"I. c #896756",
"U. c #956D52",
"Y. c #976958",
"T. c #9C7257",
"R. c #926A4D",
"E. c #A57959",
"W. c #B36C50",
"Q. c #855D66",
"!. c #8A6469",
"~. c #966866",
"^. c #81667D",
"/. c #83697F",
"(. c #886775",
"). c #987373",
"_. c #B67867",
"`. c #A87977",
"'. c #B87A76",
"]. c #A87067",
"[. c #B35D63",
"{. c #C37C77",
"}. c #C46154",
"|. c #C0793F",
" X c #73827D",
".X c #AF805F",
"XX c #B58559",
"oX c #B88665",
"OX c #B48379",
"+X c #8E827D",
"@X c #C48872",
"#X c #EDB868",
"$X c #D29A5B",
"%X c #F9C975",
"&X c #F8C26A",
"*X c #8B6E83",
"=X c #866B80",
"-X c #8E7186",
";X c #92768B",
":X c #96798C",
">X c #9B7D93",
",X c #977A90",
"<X c #A47E83",
"1X c #C17F81",
"2X c #788580",
"3X c #7D938C",
"4X c #9F8197",
"5X c #978C8D",
"6X c #AA8588",
"7X c #B68988",
"8X c #A3849C",
"9X c #A88899",
"0X c #BC9494",
"qX c #B89597",
"wX c #B59092",
"eX c #AB8BA3",
"rX c #A889A1",
"tX c #B492AB",
"yX c #B89AA8",
"uX c #B493AC",
"iX c #B5A7AA",
"pX c #C98884",
"aX c #DB8E8B",
"sX c #D38A88",
"dX c #CA9489",
"fX c #D59788",
"gX c #C59996",
"hX c #DC9492",
"jX c #D89A95",
"kX c #D3A39A",
"lX c #C7A7A8",
"zX c #D9BAB6",
"xX c #D5AFAB",
"cX c #E6BCB5",
"vX c #E5B1AA",
"bX c #E0A895",
"nX c #E7C3BC",
"mX c #F2C5BC",
"MX c #E4C3AD",
"NX c #D8C8C7",
"BX c #E8CAC5",
"VX c #F7D5CC",
"CX c #FBDDD3",
"ZX c #F5DBD3",
"AX c #EED2CC",
"SX c #FAE0D6",
"DX c #FAE2D8",
"FX c #F4E1DD",
"GX c #ECE0DE",
"HX c #FAEAE8",
"JX c #FCF4F2",
"KX c #F5F2F0",
"LX c #FBEFED",
"PX c #C2E8DE",
"IX c #BCCDC8",
/* pixels */
"~ l.l.l.k.k.k.k.k.f.z.J.J.z.J.K.`.fXfXwXtXtXtXeX>XtXeXtXtXtXtXtX>XtX>XeXeXtXtX>XeXtXeXeXrXrX8X4X%X%X#X#X&.#X&X$X/ N J J H B B H ",
"v.l.k.k.k.x.z.k.k.z.J.z.K.K.J.K.OXfX7XeXeXtXtXeXrXe.>XeXtXeXeX>XtX7.>X>XeXeXeXeX>XrXrXrX4XrX8X8X%X%X$X$XOX$X&X&XL.! Q J N H H H ",
"W W E W ~ l.~ ~ _ ~ ` l.k.J.W.W.7X5XrXrXrXrXrXeX=X^.rXrXtXrXeX>XtX>X;.>X>XeX>X>X>X,X8X8X4X4X4X4XkX%X#X$X;X(.#X$X$X/ ! N N J H H ",
"Q Q / ( ( ( ) &.&.&.I.I.R.K.x.W.yX>X>X8XeXeXeX,X>X>X>X,X>X>X;X>X>X>X*XX.,X>X>X>X>X4X,X>X,X,XrX>X>XMX#X).-X-X$Xv._ ^ ^ ! Q J N H ",
"Q ( ( ^ &.&.&.&.&.&.I.I.H.J.c.gXlXuXyX8XeX>X>X,X>X,X-X;X;X^.^.;Xw.;X;X=.q.;X;X;X>X,X,X,X;X,X;X;X-XOX#X/././.&._ ) ( ` / ! J J H ",
"( ^ ^ ( ( &.&.P.I.i.I.T.Y.k.].>X>X>X>X>X>X>XrX>X;X8X1.>X:X1.3.=X3.;X=Xw.| =X-X;X;X,X;X*X-Xy.#.#.q.=X(.t.t.t.&.F.&.) ) ^ ^ / Q J ",
"^ ( ( ( &.&.&.R.I.I.Y.I.U.J.;X;X/.;X-X;X;X-X*X*X1./.q.=X=X..-.w.=.t.^.t.....^.=X*X=X=X^.=X/.=X*X/.y.=X8.t.q.,.j.F.&.) _ ^ / / Q ",
"^ ( ( &.&.I.&.L.L.I.U.T.W.~.*X(.=X-X*X=X=X^.=Xq.5.4.w.t.w.{ ..4...4.w.q.| } 5.^.w././.q./.^.t.w.4.w.Q.6.q.4.P j._ ~ ~ W ~ ! ! U ",
"^ ) ) &.j.&.F.L.L..XT.T.Y.=XQ.=X^.=X=X1.t.t.t.} 5.@.q.q.5.[ [ 4.} } 4.4.4.{ [ w.w.w.w.@.q.q.-.5.1.1.-.-.5.1.p U V V V V h h h h ",
"_ ) &.&.F._ P.L.&..XT.T.!.^.q.=XQ.^.=X4.q.w.1.' 4...4.4...K [ =.] ' @.5.5.' ' 5.q.q.q.#.5.} 5.1.p 1.#.;.-.#.p G V b b b h h h h ",
"&.&.&.&._ L.L.R.U.U..X.X(.G.=X=Xq.t.1.q.q.q.} ' 6.1.5.5.} p ' } ] ' ' 1.4.} ] ..4.q.q.#.4.4.5.p p @.} @.@.p t r h h h b h g f g ",
"j.P.P.j.L.R.U.T.R.T..XoX(.H.^.=X=X=X} q.q.4.' ' 3.4.5.5.' p ' } } K p ..1.5.' ' 4.q.q.1.5.5.p p p #.] ....r p r I V V V V V h h ",
"P.P.L.L.L.R.U.R.T..X.X.XI.H.t.=Xq.4.#.q.q.} K ] 5.5.#.5.' p p ]  .i ' i 1.1.' L 3.5.4.#.1.p p p r ..' ....r t t G M M M v b x c ",
"R.U.U.U.R.E.U.U..X.X.X~.W.!.t.q.w.} 4.4.5.p p K 3.1.} 1.r p p u ~.L  .u p 1.@.K =.5.5.1.-.p r r r } ] { p r q e t N ! C M N v v ",
"U.U.XXT..X.X.XT..X.XE.!.Y.t.t.w.q.i 4.5.5.p p L 2.5.' @.r p p t 1X .p G.r } 1.u { 1.1.@.@.i r r q ' K [ r q q q t C E C C N M M ",
"E..X.X.X.X.X.XoXoXoXoX!.!.w.q.q.4.p 4.1...p {  .G.2.p 1.r r r u hX[.t pXt r #.' ] -.1.1.#.r r q q r p ' q q w q e U W W E E V Z ",
".X.X.X.XoXoXoX@XoX@XXXY.^.w.q.q.#.' 1.1.' p (.Q.H.4.p @.r r r u hXhXL o.G.t t @.K -.1.1...q q q q r p p q q 9 9 w Z A Z V V V V ",
"oXoXoXoXoX@XoX@X@XXXoX].w.w.4.4.' } 1.1.p p H.H.[.2.r @.r q r u hXpX[.i hXo.q r t 1.1.@.} q q q q q r q 9 q 0 0 0 e b x b z z g ",
".X.XXXoXoX@X@X@X$X@X@X!.q.q.q.4.p } } 1.t  .~.7XVX;.p } q q r ] @XaXsXI 1X{.L q q o.@.@.p q e w 0 9 r 9 q q 9 q / 0 J ~ W Z E E ",
"_.W._.W.W.W.W.[.W.}.].q.9.8.5.5.r ' p @.r ).zXlXLX6.r r r q q Q.hXhXvXhXo.hXaX~.q -.1.@.q q r w 9 9 y 9 p 9 9 9 I.T.I.( j.~ P.P.",
"K.K.K.K.m.K.K.K.K.K.y.+XQ.q.5.5.r p r #.r 8XzXOXnX9Xu q q r r 7XhXhXsX).5 n G &.~.o.2.@.w q r w 9 9 q 9 9 r w 9 !.~.T.U.F.~ L.I.",
"z.z.z.z.f.f.z.l.J.Q.I..X!.4.1.1.q p q ..r lXJXxXJXJX[ e q q r hXhXhXkX5 7 & o w.5 ,.1.=.9 9 y y 9 9 r 9 9 p 0 8 I.E.T.T.P.~ U.L.",
"< c z 1 A s c M U &.L.T.G.4.1.1.q r q { r xXJXlXJXJX7.).q q r hXhXaXCXlXH = # zXAXG.e.' 9 q L Y 9 9 q 8 8 9 r 9 ).T.T.U.P._ R.R.",
"7 7 7 < U s m C Q ) P.U.G.4.@.1.q r q [ t nXJXKXJXNXNXZXt q r VXhXhXCXi.=   # 5XKX~.0.X.q 9 o.sX2 8 w 9 8 8 y e T.T.T.U.j.~ U.U.",
" X X X/ g.h N C C ! P.L.K.e.*.1.q q q /.u BXKXJXJXzXJXJXSX .q 6XVXhXCX).O.# T zXJX~.>.ZXH 8 ,.sXe 8 9 0 8 & w e I ).).E.L.~ U.U.",
" X X X( g.h m N N / _ P.J.,.o.o.r w w w.[ BXJXJXJXzXJXJXSXSXnXOXSXVXDXKXPXPX3XJXcXG.Q.CX .& !.sXo.8 2 9 & 8 9 Y.G.m R.R.j.W F.P.",
" X X X/ l.h N N N ! _ P.R.k.o.v.{ 9 t | u.lXJXJXJXzXJXLXSXDXDXDXDXDXSXSXNXIXJXZXvX!.).VX+.9 1XaXo.& 2 & 8 % 8 V V A A V V V V V ",
" X X<.Q gX` N N N E ~ F.k.v.f.v.=.9 t t JX/.lXqXlXFXJXNXzXzXnXnXSXDXSXDXxXwXCXSXcX(.).CX%.9 sXaXy & & 8 2 % & 4 z h h h h h h d ",
"2X Xr.^ VXCXcXN N C ! _ k.v.f.c.o.w 9 e LXNXLXJXGXBXZXDXSXDXSXCXzXxXAXDXCXDXDXSX'.*.:.CX6X9 sXP & % 3 9 > 3 % 2 - O O O O - O O ",
"2X Xr.Q f.kXCXVXE M C ! v.c.v.c.o.-.9 t BXCXCXZXSXSXCXDXSXDXDXSXDXDXSXAXnXAXDXvX~.q t CXCXP y 8 % > > O > O > $ 3 O O O O O O O ",
" X2Xr.Q f.A nXSX.XN N ! l.v.c.c.E -.y 0 lXSXSXSXDXSXSXSXDXSXDXDXDXDXDXDXDXVXzXOXT.9 e CXCXG & & & - , O O O O > > > O O O O O O ",
"2X2Xr./ f.l N CXCXE N F.vXv.v.c.V -.9 2 %.SXSXDXDXDXSXDXDXSXDXSXSXSXSXDXSXSXVXVXSXI 9 nXSXI.& > 3 O - O O O O O O , > O O O O X ",
"2X Xr./ f.l m zXSXT.M vXCXc.c.W.V ;.t & e CXSXSXSXDXDXSXSXDXDXSXSXSXDXSXSXSXbXVXDXAX9 !.SXBX5 - > O O O O O O O - O O O O O O O ",
"2X X<./ f.l n ( SXCX_ MXDX|.|.XXM 2.| 8 y / CXSXSXSXSXSXDXSXSXSXSXSXSXSXDXCXhXjXDXnXBXI.CXCX1 - > - - O - O O O O - O O O O O O ",
" Xu.r./ f.l x N zXCXCXmXCXoX|.XXM -. .& 0 5 ! CXSXSXDXDXSXDXSXDXSXSXSXSXCXhXaXsXSXVXCXSXZXnX+X: - - ; - - - - O - - - - O O O O ",
"r. X<.Q f.l m BXCXCXZXSXCXSXoX@Xm U g y 0 :.I n B kXCXSXSXSXSXSXSXSXDXCXhXaX{.aXCXmXcXzXzXMXCXBX4 0 3 3 3 5 ; ; ; ; ; ; - - - - ",
"r.r.<.Q f.l U ZXzXCXCXzXxXCX@XfXN %.9.6.9 9.9.9.8.w.^.kXCXCXSXDXSXSXCXvXsXaXhX'.BXSXSXSXSXZXSXjX4 2 2 2 2 2 3 : : , : ; : : ; : ",
" Xr.<.Q f.V ).ZXCXSXCXCXzXVXmX@XU 9.7.7.+.;.7.9.9.9.9.t  .AXSXDXSXCXsX{.aXaXpXgXBXSXDXDXVXSXSX'.y 3 L 3.X.0 2 4 1 1 1 : : : : : ",
"r.r.<.Q f.V xXZXnXMXnXCXCXSXCXkX!.9.9.9.9.6.9.9.9.y.9.0 ,.:.X.gXOXhXaXaXhX1X0XgXlXVXVXCXSXDXVX{.y ;.;.*.[ 9 & 5 1 1 < < 1 < 1 1 ",
"<.<.O.Q f.l 7XCXSXSXSXSXBXCXCXVX9.q.9.9.9.9.9.9.w.9.6.y 6Xy L 0X7X{.aXaX@XgX0XkXAXSXSXCXSXDXVX[.;.6.7.7.8.3.0 3 1 < < < < < < < ",
"<.<.O.Q f.l VXVXnXdXCXlXcXSXCXmX9.9.e.9.9.9.0.7.9.9.;.Q.0 2  .0XwXhX_.gX0X0X0XlXBXVXjXBXSXSXvX[.6.9.6.7.8.6.6.2 3 z z f g g f f ",
"<.<.O.Q f.l ].CXkXSXgXCXhXSXCXkX9.q.6.7.9.0.Q.0.7.9.9.qX3 0 o.0X0X1XgX0X0XgXgX`.BXVXpXCXSXCXbXG.9.9.8.8.7.8.7.L 3 n z z z z z z ",
"<.O.O.C f.l n CXCXSXDXCXCXZXSX'.9.9.e.9.0.7.7.7.7.9.zXo.F k o.0XqX7X~.].0X0X6XL cXvXCXCXSXSXhXG.9.9.9.7.6.7.8.*.2 j x x x x z x ",
"O.$.O.N h.h < ^ CXCXSXSXSXCXCX[.9.9.e.7.0.0.7.Q.Q.G.[.A.D D D `.0XU D D [.wXe y cXMXSXSXSXSXaXQ.0.9.8.8.7.8.8.3.2 Y v v x x x x ",
"<.$.T H f.d 1 f ).CXSXSXSXcXhX7X9.Q.6.7.9.0.0.Q.G.A.A.A.a.D D F o.D D D D U 3 0 P CXSXSXCXDXsX9.9.8.8.7.8.7.8.6.2 4 M M M v v M ",
"O.O.T x A d < f n OXVXCXjXaXaX7X9.e.9.7.7.7.9.C.A.A.A.A.A.m.D D S D D D D D k 0 t VXSXCXSXCX].Q.9.0.0.7.8.8.6.3.& j Z M M M M M ",
"O.O.R B A d < f &.BXhXsXaXsX1X0Xe.o.7.6.7.7.[.A.A.A.A.A.a.S S D F m.a.D D D D 0 t CXCXSXCXmX).).6.6.9.8.7.6.3.1.& m N N M M M M ",
"O.O.R < l s f x ZXAXaXaXxXgXwX6Xe.L 6.:.6.G.A.A.A.A.A.s.S k S D m.m.A.A.A.C.s.k 0 zXCXCXSXkX`.7X:.0 y L 6.3.2 & & J C C N C M M ",
"O.T R < h.d c M HXLXsXBXyX0X0X3.0 0 e. .4.C.A.A.A.A.A.S S s.a.D B.D C.A.A.A.A.S I xXCXCXCXjXzXqX*.3 3 e 2.3 3 3 3 E E C N N C M ",
"T T 6 < l d c ,.HXHXJXnX0XwX2.0 & 2 L L H.A.A.A.A.Z.a.S d.A.a.s.A.S s.Z.A.A.A.a.cXlXAXAXDXHXzX9.q & $ 0 t :.:.+ y ~ E E E C C C ",
"R R R 1 l d n  .NXLXZXqXwX>.2 $ $ &  .L m.A.A.Z.A.Z.S m.Z.s.s.C.Z.a.S Z.A.A.A.H.:XHXHXLXJXzX*.& $ % $ 3 ;.e.1.& 3 ! W E E E E C ",
"R a 6 1 l s :.3 [ HXwXwX2.$ $ $ $ $ 3 5 o.C.Z.A.Z.Z.Z.Z.V.d.S.m.Z.Z.S S.Z.Z.C.3.;.6.*.K 0 & * $ $ + * 3 ;.-.| + 4 _ ^ E E ~ _ _ ",
"6 a 6 , d d *.y 9 DX9X;.2 * * + $ + t y X.;.C.S.S.S.Z.Z.s.S.Z.m.S.Z.d.N.Z.Z.C.e.;.;.2.& + @ $ + * * + $ 1.2.r + Y _ _ W E ~ ~ ^ ",
"6 6 6 : l s -.-.-.2.;.i % + * @ + * > + :.;.C.Z.Z.Z.S.d.S.S.d.d.S.S.S.S.Z.S.S.2.;.;.;.-.+ $ * + $ X % 3 1.1.& + J j._ _ v.W p.p.",
"6 6 6 : d s *.X.+...u * % . X + * + > + X.:.m.B.S.B.B.B.B.B.S N.B.B.B.B.S.B.B.-.-.e.-.:.] * + + + % + $ +.*.* + ! j._ E ~ W p.&.",
"6 # # : d s [ @.} @ X X @ + + X + + $ + 2.X.b.B.S.B.B.B.B.N.a.B.B.B.B.B.S.B.B.:.X.-.=.=.;.] + X + + + @ @.| X + &.j._ W l.W p.p.",
"# # # : d s m *.*.@ X X . X . . . X @ + -.;.n.n.B.B.B.B.V.k a.B.N.B.B.V.V.a.k o.X.;.=.X.=.=.& X . X . + +.9 X + l.j.j.E E W p.H ",
"# # # - s s n  .X.3 X . . X X . X . > + X.o.V.V.D.M.d.d.S S d.V.d.N.N.B.k d k j X.;.X.=.X.@.u X . . . + +.8 . @ F.j.j.E E E &.H ",
"6 # # - s , c B  .L . .   .     . . @ @ X.n.V.N.N.N.a.a.k N.D.N.D.V.N.k a.D.k j +.X.X.=.X.X.u . . . . + #.K . @ j.j.v.~ v.W <.%.",
"# # # O s , n c P  .X             . X + +.U N.B.N.N.D.a.N.D.D.N.N.k k k D.N.d.k X.X.X.X.X.X.p         . @ +.  7 j.j.j.E ~ E <.p.",
"# # # O s , f c 4 { 2               . X  . .U n.N.N.N.N.N.N.D.N.N.a.d N.N.D.N.d  .=.X.X.X.X.'         . X X   n ` ^ ! E ~ E &.<.",
"# #   O , , < f [ [ P X               X .. . .+.d.N.N.N.N.D.D.n.N.D.N.N.j , , O t .. . .| +.]         . . . . - O - O - c x v n ",
"# # # O s > 1 <  .] { 2                  ... .L @ m.d.M.d.d.a.@ , d.d.-   . . . * X.X... .P [         .     . 5 5 = ; = = 7 7 7 ",
"# # # O > > 1 1  .[ {  ..             . | | | X.e @ @ + X b V h X   .   . . X + $ } | | | | K               . X ; O @ O @ @ @ @ "
};
