/* XPM */
static char *c_[] = {
/* columns rows colors chars-per-pixel */
"64 64 255 2",
"   c #060103",
".  c #0A0106",
"X  c #0E0109",
"o  c #0C0C05",
"O  c #1D0202",
"+  c #12010D",
"@  c #18050A",
"#  c #061603",
"$  c #1B0214",
"%  c #160319",
"&  c #1B051D",
"*  c #170314",
"=  c #17160A",
"-  c #220502",
";  c #250A03",
":  c #2D0C03",
">  c #290508",
",  c #370805",
"<  c #3E1905",
"1  c #371507",
"2  c #24091D",
"3  c #260919",
"4  c #371518",
"5  c #2E1113",
"6  c #13270F",
"7  c #302B13",
"8  c #1D0821",
"9  c #230C23",
"0  c #2B0D22",
"q  c #2B142B",
"w  c #2B1328",
"e  c #351729",
"r  c #331C32",
"t  c #3A1E32",
"y  c #301124",
"u  c #3B2136",
"i  c #3B243A",
"p  c #3B243A",
"a  c #2D3626",
"s  c #450705",
"d  c #570907",
"f  c #431C04",
"g  c #471906",
"h  c #551C07",
"j  c #4F1016",
"k  c #690217",
"l  c #6A110D",
"z  c #4A2204",
"x  c #4E2909",
"c  c #492409",
"v  c #522C0D",
"b  c #58240A",
"n  c #482718",
"m  c #562C14",
"M  c #5A3513",
"N  c #5A3618",
"B  c #44311D",
"V  c #62290C",
"C  c #623D1B",
"Z  c #673716",
"A  c #6A2E12",
"S  c #79082A",
"D  c #7C0C30",
"F  c #74142C",
"G  c #472628",
"H  c #4A3424",
"J  c #573A26",
"K  c #43293E",
"L  c #462738",
"P  c #583539",
"I  c #542D31",
"U  c #6D352E",
"Y  c #451D28",
"T  c #374937",
"R  c #314330",
"E  c #6A421D",
"W  c #72431F",
"Q  c #564732",
"!  c #684529",
"~  c #754929",
"^  c #6A4C34",
"/  c #664A36",
"(  c #6D523C",
")  c #74543C",
"_  c #7A5437",
"`  c #764C34",
"'  c #442C42",
"]  c #492E43",
"[  c #4B3146",
"{  c #4D354A",
"}  c #4C344A",
"|  c #543A4D",
" . c #573948",
".. c #553D53",
"X. c #593E51",
"o. c #683C45",
"O. c #3F5141",
"+. c #5B4154",
"@. c #5D455A",
"#. c #584157",
"$. c #4C584A",
"%. c #68444A",
"&. c #7A5A44",
"*. c #624456",
"=. c #61465A",
"-. c #63495E",
";. c #6B4C5D",
":. c #6A4854",
">. c #77545A",
",. c #714E4F",
"<. c #586658",
"1. c #644D62",
"2. c #6A4E62",
"3. c #6C5164",
"4. c #6C546A",
"5. c #675066",
"6. c #735564",
"7. c #765867",
"8. c #74586B",
"9. c #7A5A6A",
"0. c #755869",
"q. c #755B72",
"w. c #795E75",
"e. c #704F60",
"r. c #63746A",
"t. c #7D6379",
"y. c #7B6076",
"u. c #6C7C75",
"i. c #73706C",
"p. c #66675C",
"a. c #860A2A",
"s. c #931432",
"d. c #AD1B3B",
"f. c #96392A",
"g. c #8B352F",
"h. c #89241E",
"j. c #85583A",
"k. c #995534",
"l. c #8C4D31",
"z. c #A25738",
"x. c #AB5C32",
"c. c #B66B2F",
"v. c #A36227",
"b. c #923446",
"n. c #B92546",
"m. c #AE2F4B",
"M. c #B91F40",
"N. c #C52144",
"B. c #CD2B4C",
"V. c #C72748",
"C. c #CA3755",
"Z. c #D33452",
"A. c #D83B58",
"S. c #D0304E",
"D. c #C11F42",
"F. c #845D43",
"G. c #875759",
"H. c #92534F",
"J. c #A95747",
"K. c #AE584A",
"L. c #8B654B",
"P. c #886349",
"I. c #896756",
"U. c #956D52",
"Y. c #976958",
"T. c #9C7257",
"R. c #926A4D",
"E. c #A57959",
"W. c #B36C50",
"Q. c #855D66",
"!. c #8A6469",
"~. c #966866",
"^. c #81667D",
"/. c #83697F",
"(. c #886775",
"). c #987373",
"_. c #B67867",
"`. c #A87977",
"'. c #B87A76",
"]. c #A87067",
"[. c #B35D63",
"{. c #C37C77",
"}. c #C46154",
"|. c #C0793F",
" X c #73827D",
".X c #AF805F",
"XX c #B58559",
"oX c #B88665",
"OX c #B48379",
"+X c #8E827D",
"@X c #C48872",
"#X c #EDB868",
"$X c #D29A5B",
"%X c #F9C975",
"&X c #F8C26A",
"*X c #8B6E83",
"=X c #866B80",
"-X c #8E7186",
";X c #92768B",
":X c #96798C",
">X c #9B7D93",
",X c #977A90",
"<X c #A47E83",
"1X c #C17F81",
"2X c #788580",
"3X c #7D938C",
"4X c #9F8197",
"5X c #978C8D",
"6X c #AA8588",
"7X c #B68988",
"8X c #A3849C",
"9X c #A88899",
"0X c #BC9494",
"qX c #B89597",
"wX c #B59092",
"eX c #AB8BA3",
"rX c #A889A1",
"tX c #B492AB",
"yX c #B89AA8",
"uX c #B493AC",
"iX c #B5A7AA",
"pX c #C98884",
"aX c #DB8E8B",
"sX c #D38A88",
"dX c #CA9489",
"fX c #D59788",
"gX c #C59996",
"hX c #DC9492",
"jX c #D89A95",
"kX c #D3A39A",
"lX c #C7A7A8",
"zX c #D9BAB6",
"xX c #D5AFAB",
"cX c #E6BCB5",
"vX c #E5B1AA",
"bX c #E0A895",
"nX c #E7C3BC",
"mX c #F2C5BC",
"MX c #E4C3AD",
"NX c #D8C8C7",
"BX c #E8CAC5",
"VX c #F7D5CC",
"CX c #FBDDD3",
"ZX c #F5DBD3",
"AX c #EED2CC",
"SX c #FAE0D6",
"DX c #FAE2D8",
"FX c #F4E1DD",
"GX c #ECE0DE",
"HX c #FAEAE8",
"JX c #FCF4F2",
"KX c #F5F2F0",
"LX c #FBEFED",
"PX c #C2E8DE",
"IX c #BCCDC8",
/* pixels */
"l.l.l.l.k.k.k.k.k.z.J.J.J.z.k.W.dX#X@XbX0XeXtXtXuXuXrXeXtXuXuXuXtXtXtXuXuXtXtX>XtXuXtXeXrXrXrXrX,X%X&X&X_ &X&X#X/ ! J J H B 7 H ",
"l.k.k.k.k.k.z.z.k.z.J.k.K.z.J.K.dX@XbX7XuXuXtXeXeXeXtXtXuXtXtXtXeXtX>XtXtXtXtXeX8XtXeXeXrXrX8X8X8X&X%X#X#X&X&X&X|.^ Q J N H H H ",
"E E E W ~ l.~ ~ ~ ` l.l.H.J.K.W.kX@X9X>XeXeXeXeXrX=.4XeXtXeXtXeXtX*XeXtXeXeXeXeXeX4XrXrX8XrX8X8X8X%X&X&X&X#X$X&XXX/ ! N N J H H ",
"Q / ( ( ( ( ( &.&.&.&.I.I.z.K.K.dXrX>XrXeXeX>XeX=.*XrXrXrXrXrXrX8X>X-X>X>XrX>XrX>X8X>X8X4X8X8X>X>X%X&X%X-X-Xt.) ( ^ ^ Q ! J J H ",
"Q / ( ^ &.( &.&.&.&.I.I.H.H.K.W.lXeXeX4X>XeX>X4.>X>X4X4X8X4X4X4X8X>XrXt.>X>X>X>X>X4X>X>X>X>X>X8X>X<X%XXX-X-X/.t.>.^ ^ ! ! J J J ",
"( ( ( ( &.&.&.F.P.L.I.I.Y.J.J.1XyXlXlXlXyXuXeX,X>X4X>X4X4X>X4X>X=X>X>X>X-.;X>X>X>X4X,X;X,X,X;X;X-X-X#X!.t.=Xt.t.y.,.) ~ / ! J J ",
"^ ( ( p.&.&.&.&.I.&.I.Y.Y.J.H.:X;X,X>X,X>X>X>X4X4X4X-X,X;X;X;X-X@.-X;X-X=Xq.-X;X;X;X;X;X-X;X-X5.{ 2.=X^.t.y.w.q.q.4._ ) ( ^ ! Q ",
"^ ( ( ) &.&.&.&..XI.U.~.T.W.*X*X;X;X;X;X;X;X;X;X*X-X-X-X*X*X^.=X..q.=X=X=X..t.*X*X-X=X*X=Xt.{ +.t.q.t.y.4.#.5.4.4.3. .~ ~ ~ E C ",
"^ ) ) &.&.&.P.P.R.U.T.T.T.*X!.*X*X*X=X=X=X=X/./.q././././.y.1.q.} ..q.q.w.w...t.w.t./.t.t.t.t.q.4.q.4.q.4.#.' } 1.@.' V V b h h ",
"_ ) &.&._ P.P.L.R.U.T.).!.K.~.=X=X=X/./.^.t.t.4.1.t.t.t.y.q...4.] ' ..q.q.q...-.w.t.t.w.q.q.q.1.q.q.5.5.' } p r #.@.[ n h h h h ",
"&.&.F.F._ L.L.L.U.R.I.E.].J.=X/./././.t.t.t.w.[ 1.t.q.q.q.5.} 4.' ' ' ..4.4.4.} q.q.w.w.q.2.} 2.1.4.5.@.@.r r u r +.' e h g g g ",
"F.P.P.j.L.R.U.U.R.T..XoXW.G.^.=X^.t.t.t.4.q.' ' 4.q.q.q.q.} ' -.' L ] ' 1.5.5.' 4.q.q.q.q...1.1.p 1.1.#.@.p r t r p p q V b h h ",
"F.L.L.L.L.R.T.T.T.XX.XoX_.Q.=X=X=Xt.t.q.q.#.p K q.q.q.4.5.' p -.K L i t p -.5.X...4.4.q.4.4.1.} r } @.#.' } r t t r r q v b x c ",
"R.U.U.U.R.E.U.E..X.X.XoX~.=Xt.t.t.q.q.@.5.p p ' 5.5.5.5.1.p p #.] [.u K p r ..1.t 4.1.5.@.1...r r r ..} r ' r q I K 9 q M N v v ",
"U.U.T.T..X.X.X.X.X.XoXoX^.=Xt.w.w.q.5.1.p p p ' 4.5...1.#.p p } { hXL p p r r ..' 1.5.1.#.1.' r u r ' p p q K q L ' q w C M M M ",
"E..X.X.X.X.X.XoXoXoXoXoXy.t.w.w.q.q.} 1.r r p ' 1.1.p @.} r p K >.hXH.t o.r r r ..@.1.1.@.@.' q r q r p p q q q ' q 9 9 E M E M ",
".X.X.X.XoXoXoXoXoXXX@X~.y.t.q.q.4.4.p 1.r r K ] 3.1.p 1.} r r i `.hXhXL 1XL r r r ' 1.@.@.#.p q r q q ' r 9 9 q q q q 0 V V V v ",
".XoXoXoXoX@XoXoX@XoX@Xy.y.w.4.q.4.@.p #.r p ;.).4.;.r #.} q r t hXhXvX[.o.sXt q r t 1.@.@.#.r q w 9 q p r q 9 q 9 q 8 0 b b b h ",
"oXoXoXoXoX$XoX@X$X@XQ.w.w.q.3.q.4.' ' ' r ] P 1Xe.e.r [ ..q q u hX{.pXhXL hXaXt q r -.@.#...q q 9 9 9 q q q r 8 9 9 9 e W Z ! E ",
"_.W._.W.W.W.W.W.W.Q.).$Xw.q.4.5.5.r ' r r <XP hX6.kXr r p r q t '.dXcXvX!.~.pX1Xe q =.-.....q q w 9 8 8 9 y 0 8 9 9 L P j.~ P.L.",
"K.K.K.K.m.K.K.K.b.J.U.@Xw.q.4.5.1.q #.q t 0X>.xX+XJXL q r r e t hXaXmXVXhX,.hXhX].q X.1.@.} 9 r 9 9 9 9 9 y y 0 8 t P G j.~ R.I.",
"z.z.z.k.f.l.k.l.J.l.L.XXq.4.5.5.1.q #.q p zX/.lXAXHXzXt q +.L Y hXhXVXlX( P / ].jXP | -.#.p 8 q 9 9 q 9 9 y y 8 9 ,.~.T.J ~ R.I.",
"< < c < m g z m Z _ L.T.q.4.5.5.#.q ..q ..AXzXBXLXGXJXqXq L mXL hXhXBXO . & * >.G '.L -.#.9 9 y w 8 8 8 q y e 9 r I.T.U.F.~ P.L.",
"7 B 7 < U g v N ! _ P.R.q.4.1.1...q ' r 4.GXHXBXJXLXJXLXP 6XnXG.bXhXkXAXFX= 6 R HX0XH.-...8 9 e 0 8 8 8 y y e 9 9 ).T.T.j._ R.U.",
" X X X/ l.h N N C ^ P.L.q.5.5.1.} q e 4.w.GXKXNXJXJXLXJXSXCXSXCXCXhXDXFX=   o # KXZXpX;.w 8 8 G.4 & 8 8 2 y y y e ~.T.T.P.~ U.U.",
" X X X( g.h m N C ! ) F.8.k.;.1.X.9 q w.(.FXKXJXJXJXHXJXDXDXDXDXSXnXSXSXa   = a LXcX'.1.8 8 8 G.[.8 8 8 8 q e P ^ R.U.R.l.W &.k.",
"5X X<.Q g.V v N J ! ^ P.4.v.g.1.X.9 r | lXAXJXJXJXJXLXJXDXSXDXDXDXSXSXDXIXIXIX XLXjXQ.' 8 % 8 [.{.2 % 8 % y J Y Z V V V V V A V ",
" X X<.Q g.h v B N C ^ _ ,.v.v.o.1.9 e t KXKXJXJXJXJXJXJXSXDXDXDXDXDXDXDXNXIXIXJXxXhX7.9 r 8 9 1X].8 8 8 5 4 h , b h h h h h h d ",
"2X Xr.^ f.l v N N N ! ) j.x.x.b.-.q 0 q LXJXAXzXlXlXZXJXnXnXCXDXDXDXDXDXZX9XlXZXSX!. .' 8 % 8 1XI % % 2 > > - - , O O O O O O O ",
"2X Xr./ f.l x M M N C ! l.f.v.g.X.X.9 e HXZXLXJXLXLXNXDXDXSXSXCXzXxXGXSXCXSXSXCXxXQ.' ..% 8 8 [.9 8 % 3 > > ; : > - O O O O O - ",
"2X2Xr./ f.l x v v N N E l.v.x.l.2.X.t y :.SXzXBXZXSXSXDXSXSXDXDXSXDXVXzXnXDXSXSX`.9.2.0 % % 9 2 & 8 & - G cXCXCXAX5 O O O O O O ",
"2X2Xr./ f.l x x v M N E l.v.c.l.o.3.9 e ZXCXSXFXSXSXSXSXSXDXDXSXSXSXSXSXSXcXnXvXQ.9.1.& % P VXe & $ 4 P CXCXCXCXgX: O O O O O X ",
"2X2Xr./ f.l c x x v M N k.c.c.J.o.9.w 3.SXzXSXDXDXSXDXSXSXDXSXSXSXSXDXSXSXSXSXhX(.9.*.8 8 xXCX).0 2 ~.VXCXVX,.: - - O O O O O O ",
"2X Xr.Q f.l z x x x N C k.c.|.W.U 9.9.CXnXCXSXDXSXSXSXDXDXDXDXSXSXDXSXSXDXSXCXaXG.9.[ 8 9 VXCX>.5 `.CXSXgX: - - - - - O O O O O ",
"u. Xr./ f.h x x x v v N R.|.|._.%.lXCXCXG !.CXDXDXSXSXDXDXDXSXDXSXDXDXSXSXDXvXsX~.9.u & 2.CXCXG ,.CXCXcX: ; ; ; ; ; - - - O O O ",
"u. Xr./ f.d z x x x x M Y.$X$XMXCXCXvXY 9 g ~.CXSXSXSXSXSXSXSXSXSXSXSXDXDXVXaX{.].(.t K SXCX0X7XCXDXzX1 : : : ; ; ; : ; - - - - ",
"r.r.<.Q f.d g x z x x M OX@XSXSXnXjXG.%.nXVXG.B nXSXSXDXSXSXDXDXSXDXSXSXCXhXaX[.pX(.L VXSXzXDXCXcXAX'.4 y , : : : : : : ; ; : : ",
"r.r.<.! f.b g z z z c m OXmXSXZXSXVXm OXCXhXQ.8.>.e.6XVXSXSXDXDXSXSXSXSXhXsXaXaXaX).xXCXVXSXDXDXDXCXcXe Y e 2 1 1 1 1 1 : 1 1 : ",
"r.r.<.! f.V f g f z z v kXDXSXAXDXCXCXcXhXG.Q.9.9.w.9.u +.AXSXSXDXDXCXsXaXaXaX{.dXwXSXSXzXSXDXDXSXCXCX!.0.6.X.0 < 1 < < < < 1 1 ",
"r.<.$.Q f.l g f f z z v CXDXSXSXVXCXCXvXG.9.9.9.9.Q.9.0 y 6X%.VXVXdXhXaXaXaX7XgXgXSXSXSXSXnXmXvXCXVXVX>.L L 0 2 3 f < < < < < < ",
"<.O.O.J l.d g f f < z zXCXCXzXDXSXBXsXaX9.9.9.9.9.9.e.y 6Xe 3 Q.0X'.aXaX'.0XgX0XqXCXSXCXnXSXSXSXSXSXDX!.q.8.7.*.0 g z z f z f f ",
"O.<.O.C f.l < f f f v CXxXCXDXnXDX'.{.[.q.q.9.9.9.9.e.e o.2 0 >XgX_.{.pXqX0X0XgX0XSXnXzXCXSXSXCXSXSXVX9.9.7.7.8.0 4 g z z z z z ",
"O.<.O.M f.d < < f z / CXmXaXVXkXhX{.aXG.9.9.9.7.9.Q.7.).y 3 0 wX0X~.{.0XgXgX0X0X).CXCXmXCXAXzXnXxXVXkX9.9.7.7.8.L 3 b v x x x x ",
"<.O.O.N h.d < < z z 0XSXkX{.aXaX{.aXaX9.9.7.7.9.9.9.9.jX3 j 4 gX7XpX<Xb.o.[.0XwXL CXSXCXVXDXCXCXSXFXVX9.9.7.7.8. .3 v v v x x x ",
"$.$.T H l.d < < f x CXSXSX1X{.{.aXsXQ.0.7.8.0.7.9.b.C.C.D D D H.wX7XD D D D F o.4 VXSXVXCXCXcXVXVXCX`.9.7.8.8.8.X.3 Z v M M v v ",
"O.O.T v h.d s f f m CXDXSXaXaXaXG.Q.7.Q.e.0.7.C.A.A.A.A.a.S S D F D D D D D D D D H.CXCX7XhXvX{.aXpXw.9.7.7.8.7.[ & C Z M M M M ",
"O.O.R 7 h.d f f f G.CXSXAXaXaX{.6X7.7.9.7.7.[.A.A.A.A.A.M.S S D D D S S D D D D D H.CXSXSXCXvXaXaXQ.0.8.7.8.6.6.t 3 N N M M M M ",
"O.O.R z h.d f f J zXaXhXaXaX{.'.wX .7.e.0.m.A.A.A.A.A.d.S S S S D D S D a.a.a.D D `.CXCXCXhXaXaX].o.;.6.8.p.8.6.0 3 Z C E C M M ",
"T O.R < l s g P zXzXaXaX{.sX{.0Xe.t 6.*.6.C.A.A.A.A.A.S S S a.S s.s.S a.A.A.A.A.[.ZXnXCXhXaXaX{.0X).2 3 ;.6.3.1.2 5 C E C E N M ",
"T T a 1 h.d H L ZXlXpX'.'.pXwX7.0 y 6.L e.C.A.A.Z.A.s.a.n.C.A.S C.s.S S m.A.A.H.;XzXVXbXaXaXsX'.`.).0 3  .3.0 3 & j E E C C C C ",
"R R R 1 l d :.> NXLXHXzX0XwXQ.] $ 0 ;.*.6.b.A.A.Z.A.Z.Z.Z.Z.s.S m.A.a.S S Z.b.e.Q.HXNXCXpXaXaX`.wX0.=.& X.y L y 3 U ! E E E E C ",
"R a 6 1 l d *.t :XHXHXwX<X;.t $ $ $ ] ;.:.;.C.Z.Z.Z.Z.Z.Z.s.S.d.J.Z.Z.M.a.Z.H.;.9.HXHXHXHXHXLX8X3.9 $ * Y e.-.[ $ ~ ~ ~ W ~ _ _ ",
"6 6 6 : l s ;.2.4.DXAX<X;.] * + + $ Y 3 L :.Z.S.Z.Z.S.Z.N.Z.Z.n.H.Z.S.Z.Z.Z.b.;.X.HXLXHXHXHX*X..& * $ $  .2.1.w $ _ _ E ~ ~ ~ ^ ",
"6 6 6 : l s X.1.-.iX9.-.] * + + + 3 y 3 y ;.C.Z.Z.S.Z.Z.S.S.S.b.K.S.S.Z.Z.S.b.;.;.;.lXDX/.2.e $ * % + + [ 1.1.$ + _ _ _ _ W p.p.",
"6 6 # : l s P -.-.-.-.| + + + X + + [ +  .o.B.S.B.B.S.B.B.B.N.F C.N.B.B.B.S.m.e.;.-.1.;.| $ + + + + X + [ 1.=.+ > j._ E W W p.&.",
"6 6 6 : d s G =.2 3 * + + + + + X + [ @ t :.n.B.S.B.B.B.B.V.a.k S.B.V.B.B.Z.B.:.;.1.1.1.-.0 + + X % + + K *.| + > j._ W l.W p.p.",
"# # # : d s v @.2 X X . . X X % X X [ @ t o.V.V.B.V.B.B.B.S N., V.B.D.B.B.B.n.o.X.*.=.=.X.X.+.+ + X X X K *.& X n j.j.E E W p.H ",
"# # # - s s n  .L X . X . . X . . X L + i m.V.V.n.V.B.V.k V.V.s V.V.V.n.N.B.k o.X.=.*.=.X.-.@.u X . X . | +.X X U _ j.E E E &.H ",
"6 # # = s , c I | X . .   . . .   X e X L V.N.B.N.N.s.a.s.N.D.s N.V.B.k N.k k o.=.+.@.*.X.=.+.' . . . .  .| . X _ j.v.~ v.W <.$.",
"# # # O s , c n +.X       . .   . . + . P b.n.N.N.N.a.k N.N.n.j N.N.D.k a.d.V.b.X.+.X.*.X.X.+.K . . . . [ K   + j.j.j.E ~ E <.,.",
"# # # O s > n c  .=       .     o . X X P +.P m.N.N.N.N.N.N.d.~.D.N.D.a.N.D.N.M.+.*.X.X. .+. .q .       @ '   O ` ^ ! C ~ E $.<.",
"# # # O s , f < [ { .               . . {  .|  .D.N.N.N.N.N.d y  .* j N.N.s.s >  .X.| | +.| +.=         X .   @ - O O O z x m B ",
"  # # O s > 1 G [ { +                 . [ X.X.X.U n.N.D.j @ + X ] 3 @ M., . . .  .| | | | | { *               1 : - = = = 7 7 7 ",
"# # # O , , 1 [ [ { K             .   . K | P | @ @ , > X X O - L e X X . .   . L | | | { | | X               O ; O @ O @ @ @ @ "
};
