/* XPM */
static char *c_[] = {
/* columns rows colors chars-per-pixel */
"64 64 255 2",
"   c #060103",
".  c #0A0106",
"X  c #0E0109",
"o  c #0C0C05",
"O  c #1D0202",
"+  c #12010D",
"@  c #18050A",
"#  c #061603",
"$  c #1B0214",
"%  c #160319",
"&  c #1B051D",
"*  c #170314",
"=  c #17160A",
"-  c #220502",
";  c #250A03",
":  c #2D0C03",
">  c #290508",
",  c #370805",
"<  c #3E1905",
"1  c #371507",
"2  c #24091D",
"3  c #260919",
"4  c #371518",
"5  c #2E1113",
"6  c #13270F",
"7  c #302B13",
"8  c #1D0821",
"9  c #230C23",
"0  c #2B0D22",
"q  c #2B142B",
"w  c #2B1328",
"e  c #351729",
"r  c #331C32",
"t  c #3A1E32",
"y  c #301124",
"u  c #3B2136",
"i  c #3B243A",
"p  c #3B243A",
"a  c #2D3626",
"s  c #450705",
"d  c #570907",
"f  c #431C04",
"g  c #471906",
"h  c #551C07",
"j  c #4F1016",
"k  c #690217",
"l  c #6A110D",
"z  c #4A2204",
"x  c #4E2909",
"c  c #492409",
"v  c #522C0D",
"b  c #58240A",
"n  c #482718",
"m  c #562C14",
"M  c #5A3513",
"N  c #5A3618",
"B  c #44311D",
"V  c #62290C",
"C  c #623D1B",
"Z  c #673716",
"A  c #6A2E12",
"S  c #79082A",
"D  c #7C0C30",
"F  c #74142C",
"G  c #472628",
"H  c #4A3424",
"J  c #573A26",
"K  c #43293E",
"L  c #462738",
"P  c #583539",
"I  c #542D31",
"U  c #6D352E",
"Y  c #451D28",
"T  c #374937",
"R  c #314330",
"E  c #6A421D",
"W  c #72431F",
"Q  c #564732",
"!  c #684529",
"~  c #754929",
"^  c #6A4C34",
"/  c #664A36",
"(  c #6D523C",
")  c #74543C",
"_  c #7A5437",
"`  c #764C34",
"'  c #442C42",
"]  c #492E43",
"[  c #4B3146",
"{  c #4D354A",
"}  c #4C344A",
"|  c #543A4D",
" . c #573948",
".. c #553D53",
"X. c #593E51",
"o. c #683C45",
"O. c #3F5141",
"+. c #5B4154",
"@. c #5D455A",
"#. c #584157",
"$. c #4C584A",
"%. c #68444A",
"&. c #7A5A44",
"*. c #624456",
"=. c #61465A",
"-. c #63495E",
";. c #6B4C5D",
":. c #6A4854",
">. c #77545A",
",. c #714E4F",
"<. c #586658",
"1. c #644D62",
"2. c #6A4E62",
"3. c #6C5164",
"4. c #6C546A",
"5. c #675066",
"6. c #735564",
"7. c #765867",
"8. c #74586B",
"9. c #7A5A6A",
"0. c #755869",
"q. c #755B72",
"w. c #795E75",
"e. c #704F60",
"r. c #63746A",
"t. c #7D6379",
"y. c #7B6076",
"u. c #6C7C75",
"i. c #73706C",
"p. c #66675C",
"a. c #860A2A",
"s. c #931432",
"d. c #AD1B3B",
"f. c #96392A",
"g. c #8B352F",
"h. c #89241E",
"j. c #85583A",
"k. c #995534",
"l. c #8C4D31",
"z. c #A25738",
"x. c #AB5C32",
"c. c #B66B2F",
"v. c #A36227",
"b. c #923446",
"n. c #B92546",
"m. c #AE2F4B",
"M. c #B91F40",
"N. c #C52144",
"B. c #CD2B4C",
"V. c #C72748",
"C. c #CA3755",
"Z. c #D33452",
"A. c #D83B58",
"S. c #D0304E",
"D. c #C11F42",
"F. c #845D43",
"G. c #875759",
"H. c #92534F",
"J. c #A95747",
"K. c #AE584A",
"L. c #8B654B",
"P. c #886349",
"I. c #896756",
"U. c #956D52",
"Y. c #976958",
"T. c #9C7257",
"R. c #926A4D",
"E. c #A57959",
"W. c #B36C50",
"Q. c #855D66",
"!. c #8A6469",
"~. c #966866",
"^. c #81667D",
"/. c #83697F",
"(. c #886775",
"). c #987373",
"_. c #B67867",
"`. c #A87977",
"'. c #B87A76",
"]. c #A87067",
"[. c #B35D63",
"{. c #C37C77",
"}. c #C46154",
"|. c #C0793F",
" X c #73827D",
".X c #AF805F",
"XX c #B58559",
"oX c #B88665",
"OX c #B48379",
"+X c #8E827D",
"@X c #C48872",
"#X c #EDB868",
"$X c #D29A5B",
"%X c #F9C975",
"&X c #F8C26A",
"*X c #8B6E83",
"=X c #866B80",
"-X c #8E7186",
";X c #92768B",
":X c #96798C",
">X c #9B7D93",
",X c #977A90",
"<X c #A47E83",
"1X c #C17F81",
"2X c #788580",
"3X c #7D938C",
"4X c #9F8197",
"5X c #978C8D",
"6X c #AA8588",
"7X c #B68988",
"8X c #A3849C",
"9X c #A88899",
"0X c #BC9494",
"qX c #B89597",
"wX c #B59092",
"eX c #AB8BA3",
"rX c #A889A1",
"tX c #B492AB",
"yX c #B89AA8",
"uX c #B493AC",
"iX c #B5A7AA",
"pX c #C98884",
"aX c #DB8E8B",
"sX c #D38A88",
"dX c #CA9489",
"fX c #D59788",
"gX c #C59996",
"hX c #DC9492",
"jX c #D89A95",
"kX c #D3A39A",
"lX c #C7A7A8",
"zX c #D9BAB6",
"xX c #D5AFAB",
"cX c #E6BCB5",
"vX c #E5B1AA",
"bX c #E0A895",
"nX c #E7C3BC",
"mX c #F2C5BC",
"MX c #E4C3AD",
"NX c #D8C8C7",
"BX c #E8CAC5",
"VX c #F7D5CC",
"CX c #FBDDD3",
"ZX c #F5DBD3",
"AX c #EED2CC",
"SX c #FAE0D6",
"DX c #FAE2D8",
"FX c #F4E1DD",
"GX c #ECE0DE",
"HX c #FAEAE8",
"JX c #FCF4F2",
"KX c #F5F2F0",
"LX c #FBEFED",
"PX c #C2E8DE",
"IX c #BCCDC8",
/* pixels */
"l.l.l.l.k.k.k.z.z.z.J.z.J.J.J.K.@X@X@XfXdXbXkX$X#X@X$XbXqXlXuXuXuXuXuXtXtXtXNXtXtXtXtX;X!.I.I.L.&.( &.&.) ( ^ Q J J J J H B 7 H ",
"l.k.k.k.k.k.z.z.k.z.z.k.J.J.J.W.@XkXbXfX#XfX@X@X0XdX7XuXiXuXuXtXuXtXtXtXtXtXtXtXtXeXeXtXrX8X(.I.&.R.&X&.( _ $XXX^ Q Q J J H G B ",
"E E E W ~ ~ ~ ~ ~ ~ ~ ` H.K.J.W.kXkXgX$XbXwX9XeXeXuXeXtXtX>X>X>X8XeXtXtXrXeXtXtXtXeXeXeXrXrXrX5X!.XX%X%X&.XX&X&XL.! Q J N J H H ",
"Q / / ( ( ( &.&.&.&.I.I.U.x.c.W.dXdXfXdX>XeXrXeXeX8X>X>XeXtX>XtXeXeXeXeXrXeXrX8XrXrXrXrXrX8X8X4X4X7X#X%XR.%X&X&X&X( ! ! ! J J J ",
"/ / ^ ^ ( &.&.&.&.I.I.I.H.J.K.W.fX@X@X6X>XrXrX8X8X*X6.eXrXrX8X>XtX>XeXeXrX8X8XrX>X8X8X8X8X4X4X>X>XOX%X%X#X&X$X&Xj.( ! ! J Q J H ",
"^ ( ^ ( ) &.&.L.i.&.i.U.Y.J.x.W.fXfX>X>X>XrXrX4Xw./.-X8X4X4X>X>X>XtX>X>X4X4X4X4X4X,X4X>X>X,X,X>X>X).#X%X%X#X#X_ &.) _ ^ ! / U Q ",
"^ ^ ( ( &.&.&.&.I.I.I.U.Y.J.z.W.fX6X>X>X>X>XrX>X>X,X>X,X>X,Xw.;X,X>X,X-X,X,X>X,X>X,X;X5X,X;X;X;X;X;X%X%Xi./.i.&.&._ ) _ ^ / ! ! ",
"^ ( ( ( P.&.&.R.L.U.U.T.Y.W.W.W.wXlXrX>X>X>X,X,X,X;X;X;X-X-X-.-X*X-X;X^.4.-X;X;X,X;X;X-X-X-X-X;X-X*XbXMX/.i.t.t.&.~ ~ ~ W ~ ! C ",
"( ) ) &.) &._ P.L.&.U.E.T.K.].(.,XtXuXlXyXyXeX>X*X;X-X*X*X#...-X^.,X>X>X=...^.=X=X*X=X=X=X/./.=Xt.q.(.U.w.q.4.4.4.2.U V V b h h ",
") _ ) _ _ _ P.P.L..XT.E.~.~.=X*X-X-X*X=X*X*X*X=X=X=X^.t.w.] | q.-.q.w.w.t...4.^.^./././.t.t.4.] [ q.q.#.{ 8.5.5.5.5.1.H h h f g ",
"&.) F.P.F.L.P.L.U.&.&.I.~.Q.=X=X/.=X=X=X=X=X^.t.w.t.q.q.#.' } 4.-...4.4.q.q.} q.t.t.t.w.q...#.q.q.4.4.4.t [ X.=.1.@.@.#.g g g g ",
"_ j.j.j.L.L.U.R..X.X.XOXT.^.=X^./.^.=X^./.^.t.w.q.q.q.4.K p } 1.} [ | 4.4.q.q.X.q.q.w.q.w.q.q.q.q.1.4.5.r r ' i ..@.@.#.r z h h ",
"P.P.P.L.L.R.T.E..X.X.XoX/.t.=X^./.^.^.^.t.t.w.q.q.4.4.5.' p @.' K } i } 5.5.4.4.q.q.q.q.1.4.4.5.-.5.5.1.' r r u u r ' ....K n c ",
"R.U.U.U.R.T.E.T.E..XoX(.9.^.t.=Xt.t.t.t.q.q.1.4.4.@.5.} r p ..p  .[ K u } 1.] 1.3.4.4.4.' 1.{ -.i @.#.@.@.r q q L Y q q 9 q t I ",
"R.U.XXT.XXE.E..X.X.XG.(.^.w.^.t.w.t.t.q.q.q.' 5.5.' 1.p r } p i -Xo.K K p ..1.p #.1.5.5.} 1.@.r r #.' @.#.} r q q L J e 9 9 9 G ",
"R..X.X.X.X.X.X.XoX.XQ.OXt.t.t.t.w.q.q.q.q.' p 1.} } @.p p ' t P hXhXu r t r #.} r @.1.1.' @.p r q } ' ..#...p 9 r q U Z 0 9 9 4 ",
".XXX.X.XoXoXoXoXoX!.)._.y.t.=Xq.q.q...q.1.r p 2.t ' #.r r r ~.o.hXVX'.t t r r 1.r p @.1...@.u q q p } p } } ..p w q 0 A M 2 q 2 ",
".X.XXXoX@XoXoX$XoX!.oX!.t.t.w.q.q.4.1.4.p p t @.r p @.r r ] hXH.aXCXAXI r r r p ' ' } X...#.r q q q | q } ..p } r q 9 e z g 9 9 ",
".XoXoX@XXX@X@XoX].OX@X9.w.w.q.4.4.' 4.4.r ' t -.r r #.r r pXhX[.bXSXSX`.o.} p q K r [ 1.#...q w q q { ' p } p r } w y y ~ Z y 8 ",
"W.W.W.W.W.W.W.W.H._.).^.q.q.0.4.4.p 4...X.L '.X.(.L r r t hXhXhXvXFXSXCXhXo.aXL q q =.@.@...9 q 9 9 p ' 9 p } q q K  .Q l.~ P.9 ",
"K.K.K.K.K.K.K.m.J.K.q.w.q.4.q.4.' ' 4.u jXL hX:.jXsXL q t hXhXVXVXSXSXSXhXsXhXhXt q X.1.X.} 9 q 9 9 q ' q 9 p p 9 q G U.U ~ L.Q ",
"z.z.z.k.f.l.z.k.J.,.q.w.q.5.4.5.q ' 4.t gXI hX7.VXhXgXe t dXhXVXDXSXSXBXhXsX{.sX'.q [ X.....9 r 9 8 9 p ' 9 8 p 9 9 G T.&._ R.I.",
"< < c z m s z m Z >.q.q.4.1.5.@.q [ 5.L hXo.{.].`.].VX,.`.).hXVXDXSXlXnXBXbXhXhXhXI ' 2.#...8 w 9 8 8 r p 8 8 8 9 8 0 T.F._ R.L.",
"7 7 7 g A g v N ! 8.4.I.4.1.5.} 9 ' 3.!.vXOXjXAXAXzXCXSXCXCXcXvXnXnXnXnXnXnXhXVXhXsXL 2.#.} 9 9 9 9 8 8 q r 8 8 8 q 2 I.j._ R.R.",
" X X X/ g.d M N ! 8.>.P.;.@.1.p 9 q -.`.FXLXHXHXJXJXJXGXAXSXDXCXCXDXZXAXSXVXnXVXlXpXo.e.@.p 8 8 8 8 % 8 8 r 8 8 & e %.%.P._ U.U.",
" X X X/ l.b m Q J e.) P. .X.1.q q 9 2.lXHXGXeXNXGXFXJXJXDXSXSXDXSXDXCXdX7 @ o 5 ).pXG.;.X.q 8 9 2 8 8 % % 8 8 % 8 I L.U l.W F.L.",
"5X X<.Q g.V v N J %.( F.[ | 1.q q q [ AXJXJXJXJXJXJXJXJXSXSXSXSXSXDXCXOXI @ 7 o 6., >.;.@.8 8 0 0 8 8 % 8 % r % & M A V V V V V ",
" X X<.Q l.h v B N U ! F./ i 1.r y 0 q GXGXJXJXJXJXJXJXJXDXSXSXSXZXDXCXZXzX= = # AXAXe.1...8 % P G.% 8 % % % 8 8 & h h h h h h d ",
"2X2Xr.^ f.h x N N N ^ ( l.A =.K y 9 9 eXGXJXJXJXJXJXGXJXDXSXFXSXSXDXDXDX# =   # 5XHXe.2.8 % 8 G.sX9 & % % % % $ 2 O O O O - O O ",
"2X2Xr./ f.l x M M N N ! l.v.X.#.e 8 8 ] FXJXJXJXJXJXzXJXDXSXSXSXSXSXSXDX$.r.2XT GX:XX.8 % % 9 aXaX0 & % 8 $ $ $ O O O O O O O O ",
"2X2Xr./ f.l c v x N N E l.z.*.X.u 8 8 r HXJXJXJXJXJXzXJXSXSXSXSXDXDXSXDXiXPXPX X5X=.q 9 8 % :.aXaXy $ % & > 3 3 O O O O O O O O ",
"2X2Xr./ f.h x v v v N C l.l.+.X.| 2 8 0 LXJXJXJXJXLXlXJXSXDXSXDXSXSXSXSXSXNXiX/.;.| 8 % % 0 sXaXsX2 % % $ @ 4 O O O O O O O O @ ",
"2X2Xr./ f.h c x x x M C j.z.*.X.K 8 9 2 GXJXAXzXAXHXJXKXzXzXMXMXBXCXSXSXSXDXkXxX2.e % % % ~.aXaXY % % & > O - O O O O O O O O O ",
"2X Xr.Q f.h c x x v M N k.J.*.X.& w 9 9 hXJXJXJXJXJXAXAXSXSXSXSXSXnXzXCXCXSXnX!.e.& % % o.aXsXe $ % % > ; O O O O O O O O O O O ",
"u.u.r./ f.l c x x x v N H.z.-.@.8 & 9 y pXBXBXAXSXSXSXDXSXSXSXSXSXDXDXAXzXAXAX(.K % % 0 sX[.9 % & 3 3 ; - - - - - - - - - O O O ",
" Xr.<./ f.d c x x x x v ~.H.*.=.8 & 2 : g CXSXDXSXSXSXSXDXSXSXDXSXSXSXSXSXSX0X!.| & y G.8 % & 5 ; 5 ; ; ; ; ; ; ; ; ; ; - - - - ",
" Xr.<.Q f.d f x z x x v `.G.@X*.9 & 2 1 1 xXCXSXSXSXSXSXSXSXSXSXSXSXSXSXSXSX7X].>.8 1X2 * $ 3 : : : : : : 1 : : : : : : : ; : ; ",
"r.r.<.Q f.b g z z z z v OXH.oX,.{ & 4 1 1 H CXSXSXSXSXSXSXSXSXCXSXSXSXSXSXDXcXhX1X4 [.Y 3 5 : : : 1 1 : : 1 1 : : : 1 : : : 1 , ",
"r.<.<.J f.V f f < < z x T.k.W.[.1.& 5 < < 1 ! SXCXSXSXSXSXSXVXSXSXSXSXSXCXDXhXaXsX1X7X<X1 1 : : : : : : : 1 1 1 1 1 < < < 1 1 1 ",
"r.<.O.Q f.l f < < < f z R.W.|.W.o.[ 5 < < < 1 c 0XCXSXSXSXCXSXCXSXSXSXCXDXbXaX{.aX1X0X0X3 y 5 1 1 1 1 1 1 1 < < < < < < < < < < ",
"<.<.O.Q f.l f < f < z x H.|.|.W.m J I %.Q.9.7.6.%./ P ).CXCXSXSXCXSXSXSXhX{.aXaX7XgX0XI 3 2 y qXe 2 2 & 2 3 3 f f f f f f f f f ",
"$.<.O.N f.l s < f f z v L.W.W.W.A C >.9.9.0.q.9.8.9.9.0 y >.VXSXSXSXVX{.aXaXaXdXqXqXxXcXy 0 X.(.3 2 2 ] e.X.0 3 c z z z z z z z ",
"O.$.O.M h.d < < f z x m BXCXBX].@XVX).9.6.9.7.7.9.9.X.3 0 wXy i gX`.aXaXaXhXpX0XgXCXCXCXxXlXgXe 2 0 6.6.0.1.2.2 2 b x b x x x z ",
"<.O.T N h.d f < < z x T.SXSXnXCXDXVXQ.Q.7.9.6.9.0.9.[ 0 >.o.0 L 0X6XsXaXsXwXqXqXAXSXSXSXCXCXOX2 y 6.7.%.L t 9 3 3 n v v x x x x ",
"$.$.T H l.d 1 < f x ).CXSXSXAXjXdXG.9.Q.0.q.6.9.Q.Q.] y 7X0 2 o.0X`.pXaXqX0X0XxXSXZXvXBXBXvXP y 8.7.6.7.8.6.*.2 3 Y M M v v M v ",
"O.O.T v h.d g f n nXSXNXSXSXSXCXVX!.9.9.9.7.9.7.4.G.o.F k k 3 o.0X`.1Xb.D F F CXSXSXSXSXcXSXCX6X9.7.7.9.7.9.0.0 2 e N M M M M M ",
"O.O.R 7 h.d < f xXSXSXnXVXcXVXCXSXCX6XQ.4.9.Q.G.C.A.A.D D D k ( 6XwXo.D D D D VXCXSXSXbXgXCXSXCXCX6X~.I.9.7.8.t & 3 Z M M M M M ",
"O.O.R c h.d f c CXCXSXSXSXSXCXnXVXCXCXY.4.G.[.A.A.A.A.s.D S S F `.b.S S D D a.VXcXCXjXVXCXkXCXCXSXCXCXVXmX7.8.t $ 3 C C C M C M ",
"T O.R < l d z v CXSXCXCXCXCXSXCXvXkXCX`.G.A.A.A.A.A.A.A.a.S S S F D S D D D s.mXCXCXCXCXCXCXCX).wXVXAXcX6.e.6.p & 3 E E C N C C ",
"O.T R < l d c N ZXSXCXCXSXAXVXnXsX~.:Xe.K.A.A.A.A.A.n.S S S S k F S s.d.C.A.A.BXCXCXSXZXVXVXVXzX7.7.6.6.e.e.3.r $ > W E C C C C ",
"R R 6 , l d v M CXCXZXCXVXCXCXCXsX>.6.;.[.Z.Z.A.Z.A.a.S S a.s.S S m.d.m.m.A.A.VXcXcXVXCXCXVXVX`.9.6.3.6.3.6.2.q $ 3 ~ W E E E C ",
"R a 6 1 l d x B VXjXVXVXCXVXCXjXY X.3.:.:.Z.Z.Z.Z.Z.Z.Z.Z.s.C.S A.C.S S S a.A.VXVXCXCXVXCXCXkX!.).*.;.:.e.e.-.$ + 3 ! ~ E ~ _ _ ",
"6 6 6 : d s v m vXjX{.mXbXsXaX_.0 t ;.:.>.Z.Z.S.S.Z.S.Z.s.Z.Z.F S.Z.d.S S D C.hXpXbXVXVXVXCX`.1XwX4 Y =.L -.$ @ + 4 _ ~ _ ~ ~ ^ ",
"6 6 6 : l s N N ZXVXaXsX<X6X7X`.3 2  .o.-.C.S.Z.Z.S.Z.S.B.S.S.S Z.S.S.d.a.a.Z.{.hXVXVXdX{.{.OX7X9X0 o.$ e 3 0 + @ E _ ~ _ W p.p.",
"6 6 # : d s v N GXmXbX].7X7X<XK + $ 3 y o.m.B.S.B.S.B.B.S.B.d.k C.B.S.B.S.B.m.G.1XaXaXsXsXdXHXeX-X*.% + 3 K #.+ $ _ _ E _ W p.&.",
"6 6 6 : d s n H 9XDXnXlX7X6X!.3 @ + 2 > d.V.C.B.B.S.B.B.B.V.k k s.B.S.B.B.B.o.Q.CXkX6X7XAXDXFX2...+ % + 3 *...X 3 j._ W v.W p.p.",
"# # # : d s x P t DXCXBX<X).P + X X  .I V.B.V.V.V.V.B.B.N.k a.F V.d.S.B.B.B.o.X.2.;.;.q.4.-.u * * + X X 3 *.w X ; j.j.E _ W p.H ",
"# # # - s s n  .*.=XAX9X`.X.+ . . . y > n.V.V.N.N.N.n.a.k s.S F B.V.n.N.B.B.o.X.=.*.*.t + X X . . . . . 2 +.* X 5 j.j.W _ E &.H ",
"6 # # - s , x  .+.@.6.).*.3 . . . . @ X $ b.N.N.D.a.k a.d.h.- j V.V.N.N.k a.F *.*.*.+.+.$ + . . . . .   2 +.X X 1 j.j.W _ W <.$.",
"# # # O s , c P  .+.P +.q .       . X . 3  .N.N.N.N.N.D.F + + 3 n.N.N.N.N.k k X.X.+.+.+.+.8 + . . . .   e {   . G j._ E ~ E <.,.",
"# # # O s > f G  .@ = & .         . X . 2  .D.N.N.D.D.N.6X5 @ + s.N.F j P k k X.X.+.+.+.+.+.K X         u q .   J ` ! N ~ E $.,.",
"#     O s , < f $.X                 . . y X.b.D.N.M.D.s.+ :X5 L  .X.4 !.@ , d o.X. .{ +.+.|  .X         u &   . O O O - c x x n ",
"  # # O , , 1 < L X                 . X 0 |  .m.d.j O + . = wX . .X.wX@ . @ @ L X. . . .{ | | %         e p     : ; = = = 7 7 7 ",
"# # # O > > 1 1 1 3                   . w | |  .{ 3 + X . X !.wXI lX .X @ X   $ | #.| #.| | | @         . { . . ; O O O @ @ @ @ "
};
