/* XPM */
static char *c_[] = {
/* columns rows colors chars-per-pixel */
"64 64 255 2",
"   c #060103",
".  c #0A0106",
"X  c #0E0109",
"o  c #0C0C05",
"O  c #1D0202",
"+  c #12010D",
"@  c #18050A",
"#  c #061603",
"$  c #1B0214",
"%  c #160319",
"&  c #1B051D",
"*  c #170314",
"=  c #17160A",
"-  c #220502",
";  c #250A03",
":  c #2D0C03",
">  c #290508",
",  c #370805",
"<  c #3E1905",
"1  c #371507",
"2  c #24091D",
"3  c #260919",
"4  c #371518",
"5  c #2E1113",
"6  c #13270F",
"7  c #302B13",
"8  c #1D0821",
"9  c #230C23",
"0  c #2B0D22",
"q  c #2B142B",
"w  c #2B1328",
"e  c #351729",
"r  c #331C32",
"t  c #3A1E32",
"y  c #301124",
"u  c #3B2136",
"i  c #3B243A",
"p  c #3B243A",
"a  c #2D3626",
"s  c #450705",
"d  c #570907",
"f  c #431C04",
"g  c #471906",
"h  c #551C07",
"j  c #4F1016",
"k  c #690217",
"l  c #6A110D",
"z  c #4A2204",
"x  c #4E2909",
"c  c #492409",
"v  c #522C0D",
"b  c #58240A",
"n  c #482718",
"m  c #562C14",
"M  c #5A3513",
"N  c #5A3618",
"B  c #44311D",
"V  c #62290C",
"C  c #623D1B",
"Z  c #673716",
"A  c #6A2E12",
"S  c #79082A",
"D  c #7C0C30",
"F  c #74142C",
"G  c #472628",
"H  c #4A3424",
"J  c #573A26",
"K  c #43293E",
"L  c #462738",
"P  c #583539",
"I  c #542D31",
"U  c #6D352E",
"Y  c #451D28",
"T  c #374937",
"R  c #314330",
"E  c #6A421D",
"W  c #72431F",
"Q  c #564732",
"!  c #684529",
"~  c #754929",
"^  c #6A4C34",
"/  c #664A36",
"(  c #6D523C",
")  c #74543C",
"_  c #7A5437",
"`  c #764C34",
"'  c #442C42",
"]  c #492E43",
"[  c #4B3146",
"{  c #4D354A",
"}  c #4C344A",
"|  c #543A4D",
" . c #573948",
".. c #553D53",
"X. c #593E51",
"o. c #683C45",
"O. c #3F5141",
"+. c #5B4154",
"@. c #5D455A",
"#. c #584157",
"$. c #4C584A",
"%. c #68444A",
"&. c #7A5A44",
"*. c #624456",
"=. c #61465A",
"-. c #63495E",
";. c #6B4C5D",
":. c #6A4854",
">. c #77545A",
",. c #714E4F",
"<. c #586658",
"1. c #644D62",
"2. c #6A4E62",
"3. c #6C5164",
"4. c #6C546A",
"5. c #675066",
"6. c #735564",
"7. c #765867",
"8. c #74586B",
"9. c #7A5A6A",
"0. c #755869",
"q. c #755B72",
"w. c #795E75",
"e. c #704F60",
"r. c #63746A",
"t. c #7D6379",
"y. c #7B6076",
"u. c #6C7C75",
"i. c #73706C",
"p. c #66675C",
"a. c #860A2A",
"s. c #931432",
"d. c #AD1B3B",
"f. c #96392A",
"g. c #8B352F",
"h. c #89241E",
"j. c #85583A",
"k. c #995534",
"l. c #8C4D31",
"z. c #A25738",
"x. c #AB5C32",
"c. c #B66B2F",
"v. c #A36227",
"b. c #923446",
"n. c #B92546",
"m. c #AE2F4B",
"M. c #B91F40",
"N. c #C52144",
"B. c #CD2B4C",
"V. c #C72748",
"C. c #CA3755",
"Z. c #D33452",
"A. c #D83B58",
"S. c #D0304E",
"D. c #C11F42",
"F. c #845D43",
"G. c #875759",
"H. c #92534F",
"J. c #A95747",
"K. c #AE584A",
"L. c #8B654B",
"P. c #886349",
"I. c #896756",
"U. c #956D52",
"Y. c #976958",
"T. c #9C7257",
"R. c #926A4D",
"E. c #A57959",
"W. c #B36C50",
"Q. c #855D66",
"!. c #8A6469",
"~. c #966866",
"^. c #81667D",
"/. c #83697F",
"(. c #886775",
"). c #987373",
"_. c #B67867",
"`. c #A87977",
"'. c #B87A76",
"]. c #A87067",
"[. c #B35D63",
"{. c #C37C77",
"}. c #C46154",
"|. c #C0793F",
" X c #73827D",
".X c #AF805F",
"XX c #B58559",
"oX c #B88665",
"OX c #B48379",
"+X c #8E827D",
"@X c #C48872",
"#X c #EDB868",
"$X c #D29A5B",
"%X c #F9C975",
"&X c #F8C26A",
"*X c #8B6E83",
"=X c #866B80",
"-X c #8E7186",
";X c #92768B",
":X c #96798C",
">X c #9B7D93",
",X c #977A90",
"<X c #A47E83",
"1X c #C17F81",
"2X c #788580",
"3X c #7D938C",
"4X c #9F8197",
"5X c #978C8D",
"6X c #AA8588",
"7X c #B68988",
"8X c #A3849C",
"9X c #A88899",
"0X c #BC9494",
"qX c #B89597",
"wX c #B59092",
"eX c #AB8BA3",
"rX c #A889A1",
"tX c #B492AB",
"yX c #B89AA8",
"uX c #B493AC",
"iX c #B5A7AA",
"pX c #C98884",
"aX c #DB8E8B",
"sX c #D38A88",
"dX c #CA9489",
"fX c #D59788",
"gX c #C59996",
"hX c #DC9492",
"jX c #D89A95",
"kX c #D3A39A",
"lX c #C7A7A8",
"zX c #D9BAB6",
"xX c #D5AFAB",
"cX c #E6BCB5",
"vX c #E5B1AA",
"bX c #E0A895",
"nX c #E7C3BC",
"mX c #F2C5BC",
"MX c #E4C3AD",
"NX c #D8C8C7",
"BX c #E8CAC5",
"VX c #F7D5CC",
"CX c #FBDDD3",
"ZX c #F5DBD3",
"AX c #EED2CC",
"SX c #FAE0D6",
"DX c #FAE2D8",
"FX c #F4E1DD",
"GX c #ECE0DE",
"HX c #FAEAE8",
"JX c #FCF4F2",
"KX c #F5F2F0",
"LX c #FBEFED",
"PX c #C2E8DE",
"IX c #BCCDC8",
/* pixels */
"~ l.l.l.k.k.k.z.z.z.z.J.J.k.H.K.@XfX@XfXdXbXfXfXfXfX7XtXuXuXuXuXuXuXuXuXtXtXNXtXtXtXtXtXeX>XI.P.P.&.&.&.) ( ^ ^ Q J J H H H B 7 ",
"v.k.k.k.k.k.z.x.k.k.J.J.J.J.J.W.dXbX$XbX#X#XpXwXuXtXuXyXuXtXtXtXtXtXtXtXeXtXtXtXtXeXeXeXeXrXrX).!.T.%XXX) ) XXXX^ Q C N J H B B ",
"E E W E ~ ~ ~ ~ l.l.l.l.J.J.W.K.gXkXdX$X@X6XeXtXtXtXuXuXtXtX@.,XeXtXtXtXtXrXrXtXtXtXtXeXrXeXrX8X4XqX%X&XR.$X&X&XXX! Q J H N H B ",
"Q Q ( ^ ,.( &.&.&.I.I.I.U.K.K.W.fXbXbX7X8XrXeXeXeX>XeXrXeXeXeXtXtXtX>XtXrXrXeXrXrXrXrX8X8X4X4X4X4XfX%X$XR.&X&X$X&X) ^ Q Q J J H ",
"Q / / ^ &.&.&.&.&.&.I.I.Y.J.K.W.fXbXgX:XrXrXrX8X>X;X2.eX8X>XrX>XtX>X>X>X8X8X8X8X8X4X8X4X4X4X4X>X>XfX%X#X&X$X&X&X$X` ^ / U ! J N ",
"^ ^ ^ ( ) &.&.&.i.&.I.I.Y.J.x.W.@XdX>X>X8X8X8X>X=X1.=X>X8X>X;X>X>X>Xq.>X4X>X>XrXrX4X4X>X>X>X,X,X:XqX%X%X(.*X@XR.&._ ( ^ ! Q U J ",
"^ $.( ( &.&.&.&.L.I.I.U.Y.J.z.c.@X:X>X>X4X>X>X;X-X>X>X,X,X,Xq.,X,X;X-X2.;X,X,X,X>X>X;X,X;X;X;X4X;X:X%XbX=X X^.j.F._ ) ) ^ ! ^ P ",
"^ ( ( ( <.L.&.L.L.I.U.Y.T.W.W.W.wXlXeX>X,X,X>X;X,X;X;X;X-X-X@.*X^.*X*X*X1.*X-X;X;X;X;X-X-X;X-X,X*X).MX$X^.t.t.&.~ ~ ~ W ~ ! U C ",
"( ) ) ) &.&.P.P.L..XT.T.Y.x.K.).8XuXuXlXyXlXyXtXtXeXeX>X>X,X] *X4.t.=Xt.t.{ t.=X=X=X=X=X=X=X^.5.} +.q.%.q.q.q.8.J V V V V b h h ",
"( ) ) ) P._ P.L.L.&.U.~.T.K.=X=X-X*X*X=X;X-X-X/.=X=Xt.t.w.5.] 4...} q.q.#.5.@.t.t.t.^.t.w.X.' } q.q.q.#.5.4.4.4.:.b h h h h h h ",
") _ _ j.P.L.P.R.U.L..X.XY.=XQ.^./.=X=X=X=X=Xt.t.q.t.4.q.q.} p -.} p 1.4.1.#.#.q.q.q.w.w.q.q.q.=Xq.1.q.-.] 5.5.5.1.n h h h g f g ",
"&.P.P.P.L.L.R.U.L.&.I.!.^.H.Y./././.=X/.=Xt.=Xt.t.t.q.q.4.p ' #.' p ' 1.5.' #...q.q.q.q.q.q.q.4.#.1.5.1.p ' -.@.X.] m V V b h b ",
"L.P.P.L.L.U.T.R.R..X].!.~.x.=X^././././.t.t.t.q.4.q.4.4.@.p p #.i p p } 1.@.p @.4.q.4.q.4.5...-.1.#.1.@.r u u @.@.} r v x x z g ",
".XR.&.L..XE.XXT.E.T.!.oXW.Q.^./.^.^.t.t.q.t.q.} 4.4.5.5.p r r ..p p K p @.@.} r ] 4.4.5.@.@.1.-.r ' @.@.p q r q t ....] m v v v ",
"L.L.L.R..XE.E..X.X!..XoXY.^.=Xt.t.t.t.q.q.q.4.p 5.5.#.1.p r r p r i p t p @.#.r u 1.5.1.} #.@.r r r @.#.} q q q 9 9 r {  .I N m ",
".X.XXX.X.X.X.X.X!.E.oXoXw.t.t.t.t.t.q.1.q.4.' p 1.1.} @.r r r r L %.p  .r p @.p r #.@.-.} @.t q q r #.} ..q 9 r w q 9 q r J I P ",
".X.X.X.XoXoXoXoXE.oX$X@Xt.t.t.t.q.q.q.} q.4.p r @.1.p @.r r p r [ '.t `.r r p #.q p @.@.' #.r q r r ..' } p q 9 r 9 9 8 8 0 v v ",
".X.XXXoXoXoX@XI.oX@XoXQ.t.t.w.q.q.q.@.-.q.} r i Q.-.r @.r q p r <XhXL ] o.q r p q q @.@.' #.r w q q | } ] ' q 9 9 e w 9 8 9 0 g ",
".XoXoXoX@X@X@XoX@X@X!.t.w.w.q.q.q.4.p 4.4.r i ' `...r @.r r i  .hXvX:.r sXt q q r q | @.} ..q w w 9 [ ' ' r r 9 9 9 %.e 9 8 9 4 ",
"W.W.W.W._._.W.W.W.G.w.t.9.q.q.5.4.#.r 4.} ' L 1XQ.L r } r q L _.hXCXCX[ ;.sXp q 8 q r @.....9 q w 9 ' ' r r r 8 9 9 H U.P 9 & 8 ",
"K.K.K.K.K.K.K.K.J.Q.w.9.).q.4.q.5.r t 4.r -XK hXQ.jXL r r r ,.sXhXSXSXnXI pX{.e q q ] X.#...9 q 9 9 r p q p q r 9 8 9 !.F.! 9 % ",
"k.z.z.z.b.k.z.k.G.q.7.oX!.q.4.5.1.q ' 4.r sXP ].`.7X .L q r Q.hXbXSXnXVXxX'.hX].e 9 -.X...} 9 q 9 8 q p 8 r q 8 8 9 y e F.~ &.8 ",
"< < z f A s z M 0.7.P.T.q.0.@.1...w ' 2. .vXG.vXVXCXgX'.q q  .sXpXnXmXBXcXgXpXjX,.r X.X...} 9 q 8 8 8 r 8 9 q 8 & 0 I.Q &.~ L./ ",
"7 B 7 < U j m / ,.) F.R.8.4.} 1.p 9 p 1.~.ZX6XFXJXJXJXnXt L gX1XjXCXCXBXVXVX0XVX{.I X.-.#.} 9 0 9 8 8 r 8 8 8 8 8 y T.Y.P.~ R.I.",
" X X X/ g.h v / J ! &.L.6.1.} @.q 9 r *.kXAXlXNXGXLXKXLXSXnXSXDXCXBXCXgX7 @ @ 9 ~.1X%.-.#.r % 9 8 8 % 8 8 8 8 8 & 2 ].T.L.~ U.U.",
" X X XQ l.V m N N ^ ) &.H.=.' #.q 9 q X.xXJXGXHXJXJXJXJXSXSXSXZXSXCXSXOX7 $ = 9 ).Y H.2.@.8 8 9 2 8 8 8 9 % % % & 0 H.R.l.E L.P.",
" X X<.Q g.V v N N E ^ ) H.:.p @.9 8 r X.zXJXJXJXJXJXKXJXDXSXSXSXSXSXSXSXzX= = # HXzXH.-...8 % 9 I & 8 % 8 8 * % y b b V V V V V ",
" X X$./ f.h v M N J ^ _ k.b.e ..8 8 y ' nXJXJXJXJXJXNXJXDXSXSXSXSXDXDXSX# =   # NXHXH.-.] 8 8 w @X& % % 8 % % $ 2 s g h h h g d ",
"2X X<.^ f.h x N N J ! ) v.k.3 ..8 9 w } zXJXJXJXJXJXlXJXDXDXSXSXDXSXSXFXR a = R GXAXH.-.9 8 8 e sX3 % % % % $ O - > O O O - O O ",
"2X Xr.Q f.l x M M N N ! l.v.f.' 9 9 9 q HXJXJXJXJXJXlXJXCXSXSXSXSXDXSXDXqXPXPX3XKXhXo.@.8 % 8 o.aX0 % % % 9 0 O O O O O O O O O ",
"2X2X XQ f.l x v v v N E l.v.v.r r 9 & 9 LXLXJXJXHXHXlXJXCXSXSXSXSXDXSXDXDXBXlXDXSXhXo.t % % % [.sX2 % % 8 $ > O O O O O O O O O ",
"2X2Xr./ f.h c v v v N C l.c.v. .] 8 8 9 ZXLXAXzXAXFXLXJXzXnXnXnXAXSXSXSXSXSXSXSXZX).X.& % % 2 sXU % % % > $ O O O O O O O O O X ",
"2X2Xr./ f.h c x x x M C j.x.c.o...9 9 9 5.JXJXLXJXLXAXAXSXSXSXDXSXnXMXCXCXSXSXSXMXe.0 r % % t H.& % % * - @ O O O O O O O O O O ",
"2X Xr.Q f.h c x x v M E j.c.|.*.#.2 0 0 o.VXAXAXSXDXCXDXSXSXSXSXSXSXSXZXzXVXCXmX!. ...& % % e % * % $ - - O O O O O O O O O O O ",
"u.u.r./ f.l c x x x v N H.c.k.1.@.& 9 2 < CXCXSXSXCXSXSXSXSXDXSXSXDXSXSXSXZXxX0X~.;.$ % % 8 % * * * @ > - - - O - - - O - O O O ",
" Xr.<./ f.d f x x x x M Y.$X,.o...& 2 5 1 gXCXSXSXSXSXSXSXSXSXDXDXSXSXSXSXSXSXqXX.& 9 & 8 % $ ; $ - ; ; ; ; ; ; ; ; ; ; - - - - ",
" Xr.<.Q f.d f x c x x v OX@X~.G.=.& 2 1 1 n CXSXSXDXSXSXSXSXSXSXSXSXSXSXSXSXCX!.y G. .3 $ & : ; : ; ; : : : : : : : : ; : ; ; : ",
"r.r.<.Q f.h g z z z z x OX@X{.].1.& 5 < 1 < _ CXCXSXSXSXSXSXnXSXSXSXDXDXDXDXjXo.sX1X4 :X4 : : : : : : 1 1 1 : 1 : : : : 1 1 1 : ",
"r.<.<.J f.V f f z < z x ~.W.c.W.;.0 , g < 1 1 x xXCXSXSXSXSXSXSXSXSXSXSXCXAX{.sXaXpX6XwX4 4 : : : : : 1 1 1 1 1 1 1 < 1 1 1 1 1 ",
"<.<.$.Q f.l f f < z z c H.|.W.W.P e 1 P 7.>.%.I H J qXCXSXSXSXSXSXSXCXCXBXaX{.aXpXgX0X).2 2 3 >.>.2 2 2 2 3 5 < < < < < f < < < ",
"<.<.O.J f.l f < M mXM v H.W.XXW.b :.6.7.7.9.7.7.0.9.7.e I lXCXSXSXCXCXbXsXaXaX@X0X0X0Xy 2 0 L qX2 2 2 u e.e.y 3 1 f f f f f f f ",
"$.O.O.J f.d < < P.CXVXVXCX@X}.W.V 6.7.7.7.9.7.7.9.9.7.0 y (.I 6XAXxXsXhXaXhX_.BXCXCXzXe 2 0 6X .2 0 ;.6.6.X...0 3 g g g g z f z ",
"O.$.O.C f.d g N zXVXCXCXDXSX_.J.~ 9.7.9.>.7.6.7.9.9.;.0 I ).0 e 0X'.hXVXBXCXVXAXCXDXCXgXy e yXy 2 e.9.]  .] 0 2 0 n b b x x x z ",
"<.O.T J h.d OXCXCXcXpXvXCXDXsXJ.>.9.9.7.7.7.7.9.7.9.;.0 qXy 2 Y 0X`.].VXCXnXDXSXSXSXCXSXH.).6X2 ;.7.6.7.6.7.6.2 2 j v v x x x x ",
"$.$.O.H l.vXCXSXVXdX{.CXDXCXfXk.7.7.7.7.7.7.7.7.0.9.e.Y ).2 2  .0X~.sX7XAXSXSXSXSXSXSXSXjX'.G L 7.e.7.8.8.7.6.t 3 0 M M v M M x ",
"O.O.T J CXCXCXvXdXpXsXcXSXZX[.l.6.7.9.7.9.0.0.9.0.9.G.H.F S 3  .wXwX0XZXSXCXCXSXSXSXSXSXCXsXY 7.e.7.7.8.6.7.8.X.& 3 Z M M M M M ",
"O.O. XZXCXBX0XCXCXSXDXvXCXvX1XH.7.7.7.7.9.7.0.7.H.C.A.n.D D D U `.0XSXCXCXxXMXSXNXSXSXSXSXsX7.e.7.7.7.8.8.8.6.2.2 3 Z C M M M M ",
"T $.GXCXjXh Y.VXCXCXcX'.VXnXsX>.7.7.7.7.0.4.9.m.A.A.A.A.D S S F b.CXCXZXBXVXCXCXVXSXCXCXCXjXQ.6.8.6.6.8.6.7.8.6.& 3 C C E M M M ",
"T O.T v l d J VXZXVXCX{.VXvX[.).>.9.6.e.9.Q.C.A.A.A.A.A.s.S S S gXCXVXvXZXCXVXVXCXSXCXSXCXhX>.6.8.7.6.6.6.6.6.3.3 3 E C C N C C ",
"T T R < l s m CXCXCXjXsXbXaX'.7X .6.6.:.e.C.A.A.A.A.A.A.a.S S S pXVXH.[.cXxXkXAXVXVXVXSXcXaX,.6.6.6.3.2.2.e.e.2.& $ E E C E C C ",
"R R R < l d v Q VXCXVX{.aX{.0XwXy ;.e.;.,.A.Z.A.A.Z.A.a.S a.n.S [.'.D [.VXCXCXCXZXCXCXCXaXsX~.wX:.;.3.3.3.3.2.-.$ $ ~ E E E E C ",
"R a R 1 l d x v ~.K._.{.'.wX7X*.$ :.;.:.;.m.Z.Z.Z.Z.Z.C.Z.Z.N.S m.Z.a.F xXcXmXVXVXCXVXkXsXsX[.7XQ.3 X.w 2.;.& + @ > ^ ~ W ~ _ _ ",
"6 6 6 1 d s v v OX'.sX'.7X7X<X3 + ] X.:.;.,.Z.Z.Z.Z.S.S.Z.S.s.n.n.S.n.F vXVXVXVXCXCXjX{.sXVXwX9X(.X.& + 2.2 i + + G _ ^ ~ ~ ^ ` ",
"6 6 6 ; l s v N ZX].`.7X<X7X*.$ + 3 X.X.o.;.m.Z.Z.S.S.S.B.s.S.V.m.S.S.a.S b.].cXgXgXzXAXLXHXeX7.| * + + t X.*.* @ ~ _ ~ v.W &.p.",
"6 6 6 : d s B P ,XDXBX7X7X;.3 + + + 3 Y 3 :.B.B.B.B.S.B.N.B.S.d.s.S.S.B.D.C.:.>.eXiXzXzXqXq.[ & * X + + X.=.-.+ + j._ E ~ ~ p.&.",
"# 6 # : d s G I w FXZX7X!. .+ + + X [ $ 3 :.n.S.B.S.B.B.S.S.B.S m.B.S.S.B.S.%.-.;.-.X.0 * * X + % X X X +.@.#.X O j._ W v.~ p.p.",
"6 6 # ; d s n 3 $ lX6X(.+.+ X X X X | @ b.b.U V.B.B.B.B.B.B.s.S V.M.B.B.B.B.b.;.X.=.@.] + + + X + X X X +.*.q X @ j.j.E _ W p.H ",
"# # # > s , H  .0 e 6.X.+ . X . . X L + 2 V.V.D.V.B.B.V.V.d.a.k V.V.N.V.V.B.g.X.X.*.*.*.q X X X . .   . | +.* . 3 j.j.W _ E &.H ",
"6 # # O s , G  .X.+.+.q . . .   . . 0 X $ n.V.D.D.D.d.a.k a.N.F V.V.B.D.V.V.b.*.*.+.*.+.X.{ @ . . . . . { | X . 5 j._ W _ W <.$.",
"# # # O s , G | K @   .     .   . . X . $ U N.N.N.N.D.l d.N.N., B.N.B.V.d.V.s.X.+.+...X.+.+.X.X     .   $.[   . n j.l.E ~ E <.,.",
"# # # O s , < +.L                 . . . $  .M.N.N.N.N.D.N.D.d + s.N.N.N.d.k j X.X.+.+.+.P +.+..       .  .e     J ^ ^ E ~ E %.,.",
"  # # O s , < n P .                 . . &  .o.D.N.D.N.D.D.F ).+ P M.n.s.O > d o.+.X.| X.#.| |           P ]   . O O O - c x c B ",
"# #   O , , 1 1 L X                 . X $ | | P F s.d.D - . I ,.!.o., @ . + @ t | | | | | } | .         # { . . ; ; = = = 7 7 7 ",
"# # # O > > 1 1 e 2                   . & | } +.q . X . . . X :XwX .= . . .   @ | | #.#.#.| [             X . X - O O O @ @ @ @ "
};
