/* XPM */
static char *Free_Converter_com_cobblestone_57934851[] = {
/* columns rows colors chars-per-pixel */
"64 64 256 2 ",
"   c black",
".  c #0000A8",
"X  c #00A800",
"o  c #00A8A8",
"O  c #A80000",
"+  c #A800A8",
"@  c #A85400",
"#  c gray66",
"$  c gray33",
"%  c #5454FC",
"&  c #54FC54",
"*  c #54FCFC",
"=  c #FC5454",
"-  c #FC54FC",
";  c #FCFC54",
":  c gray99",
">  c #ECECEC",
",  c gainsboro",
"<  c #D0D0D0",
"1  c #C0C0C0",
"2  c #B4B4B4",
"3  c gray66",
"4  c #989898",
"5  c gray55",
"6  c #7C7C7C",
"7  c gray44",
"8  c #646464",
"9  c gray33",
"0  c #484848",
"q  c gray22",
"w  c #2C2C2C",
"e  c #202020",
"r  c #FC0000",
"t  c #EC0000",
"y  c #E00000",
"u  c #D40000",
"i  c #C80000",
"p  c #BC0000",
"a  c #B00000",
"s  c #A40000",
"d  c #980000",
"f  c #880000",
"g  c #7C0000",
"h  c #700000",
"j  c #640000",
"k  c #580000",
"l  c #4C0000",
"z  c #400000",
"x  c #FCD8D8",
"c  c #FCB8B8",
"v  c #FC9C9C",
"b  c #FC7C7C",
"n  c #FC5C5C",
"m  c #FC4040",
"M  c #FC2020",
"N  c #FC0000",
"B  c #FCA85C",
"V  c #FC9840",
"C  c #FC8820",
"Z  c #FC7800",
"A  c #E46C00",
"S  c #CC6000",
"D  c #B45400",
"F  c #9C4C00",
"G  c #FCFCD8",
"H  c #FCFCB8",
"J  c #FCFC9C",
"K  c #FCFC7C",
"L  c #FCF85C",
"P  c #FCF440",
"I  c #FCF420",
"U  c #FCF400",
"Y  c #E4D800",
"T  c #CCC400",
"R  c #B4AC00",
"E  c #9C9C00",
"W  c #848400",
"Q  c #706C00",
"!  c #585400",
"~  c #404000",
"^  c #D0FC5C",
"/  c #C4FC40",
"(  c #B4FC20",
")  c #A0FC00",
"_  c #90E400",
"`  c #80CC00",
"'  c #74B400",
"]  c #609C00",
"[  c #D8FCD8",
"{  c #BCFCB8",
"}  c #9CFC9C",
"|  c #80FC7C",
" . c #60FC5C",
".. c #40FC40",
"X. c #20FC20",
"o. c #00FC00",
"O. c #00FC00",
"+. c #00EC00",
"@. c #00E000",
"#. c #00D400",
"$. c #04C800",
"%. c #04BC00",
"&. c #04B000",
"*. c #04A400",
"=. c #049800",
"-. c #048800",
";. c #047C00",
":. c #047000",
">. c #046400",
",. c #045800",
"<. c #044C00",
"1. c #044000",
"2. c #D8FCFC",
"3. c #B8FCFC",
"4. c #9CFCFC",
"5. c #7CFCF8",
"6. c #5CFCFC",
"7. c #40FCFC",
"8. c #20FCFC",
"9. c #00FCFC",
"0. c #00E4E4",
"q. c #00CCCC",
"w. c #00B4B4",
"e. c #009C9C",
"r. c #008484",
"t. c #007070",
"y. c #005858",
"u. c #004040",
"i. c #5CBCFC",
"p. c #40B0FC",
"a. c #20A8FC",
"s. c #009CFC",
"d. c #008CE4",
"f. c #007CCC",
"g. c #006CB4",
"h. c #005C9C",
"j. c #D8D8FC",
"k. c #B8BCFC",
"l. c #9C9CFC",
"z. c #7C80FC",
"x. c #5C60FC",
"c. c #4040FC",
"v. c #2024FC",
"b. c #0004FC",
"n. c #0000FC",
"m. c #0000EC",
"M. c #0000E0",
"N. c #0000D4",
"B. c #0000C8",
"V. c #0000BC",
"C. c #0000B0",
"Z. c #0000A4",
"A. c #000098",
"S. c #000088",
"D. c #00007C",
"F. c #000070",
"G. c #000064",
"H. c #000058",
"J. c #00004C",
"K. c #000040",
"L. c #282828",
"P. c #FCE034",
"I. c #FCD424",
"U. c #FCCC18",
"Y. c #FCC008",
"T. c #FCB400",
"R. c #B420FC",
"E. c #A800FC",
"W. c #9800E4",
"Q. c #8000CC",
"!. c #7400B4",
"~. c #60009C",
"^. c #500084",
"/. c #440070",
"(. c #340058",
"). c #280040",
"_. c #FCD8FC",
"`. c #FCB8FC",
"'. c #FC9CFC",
"]. c #FC7CFC",
"[. c #FC5CFC",
"{. c #FC40FC",
"}. c #FC20FC",
"|. c #FC00FC",
" X c #E000E4",
".X c #C800CC",
"XX c #B400B4",
"oX c #9C009C",
"OX c #840084",
"+X c #6C0070",
"@X c #580058",
"#X c #400040",
"$X c #FCE8DC",
"%X c #FCE0D0",
"&X c #FCD8C4",
"*X c #FCD4BC",
"=X c #FCCCB0",
"-X c #FCC4A4",
";X c #FCBC9C",
":X c #FCB890",
">X c #FCB080",
",X c #FCA470",
"<X c #FC9C60",
"1X c #F0945C",
"2X c #E88C58",
"3X c #DC8854",
"4X c #D08050",
"5X c #C87C4C",
"6X c #BC7848",
"7X c #B47044",
"8X c #A86840",
"9X c #A0643C",
"0X c #9C6038",
"qX c #905C34",
"wX c #885830",
"eX c #80502C",
"rX c #744C28",
"tX c #6C4824",
"yX c #5C4020",
"uX c #543C1C",
"iX c #483818",
"pX c #403018",
"aX c #382C14",
"sX c #28200C",
"dX c #600064",
"fX c #006464",
"gX c #006060",
"hX c #00001C",
"jX c #00002C",
"kX c #302410",
"lX c #480048",
"zX c #500050",
"xX c #000034",
"cX c gray11",
"vX c #4C4C4C",
"bX c gray36",
"nX c gray25",
"mX c gray19",
"MX c #343434",
"NX c #D8F4F4",
"BX c #B8E8E8",
"VX c #9CDCDC",
"CX c #74C8C8",
"ZX c #48C0C0",
"AX c #20B4B4",
"SX c #20B0B0",
"DX c #00A4A4",
"FX c #009898",
"GX c #008C8C",
"HX c #008484",
"JX c #007C7C",
"KX c #007878",
"LX c #007474",
"PX c #007070",
"IX c #006C6C",
"UX c #980088",
/* pixels */
"9X6X9XwX6X4X7XyXyXwXeXuXaXcXMXcXcXcXcXcXcXcXcXcXcXcXcXcXMXMXMXMXMXMXMXMXMXMXMXMXMXMXMXMXMXMXMXMXMXMXMXMXMXMXMXMX8X8X9X0X8XiXrXqX",
"8X7X7X9X9X5X6X8X7X9XtXyXiXcXMXMXMXMXMXMXMXMXMXMXMXMXMXMX4X7X3X1X<X5XwXwX0X9X5X7X4X5X9XcXMX# ,X4XwX7X9XwXeXeXcXMX7X8X7X8XqXyXqX9X",
"8X0X0X0X0XqXrXqX9XrXyXyXaXcXMXMX,X1X,X<X0X0X3X4X7XeXcXMX# 8X6X2X3XqXrXeX8X5 8X6X5 0XyXcXMX3X1X9X7X4X7X0XqXuXcXMX0XqXwXwXyXeX9X8X",
"8XqXwXqX0X7X9X8XyXw eXbXuXcXMXMX>X4X1X3X0XqX4X7XqXyXcXMX< 9X7X5X4 5X6X9X9XqXqXqXrXrXrXcXMX# 1X4X5X5X5 eXtXtXcXMX3X6X7X5X0XyX0X8X",
"8X0X9X7X5X2X6XqXyXbXbXrXyXcXMXMX1X2X4X6XqXqX8X9XwXyXcXMX1X5X2X6X5 6X8X9X0XeXrXeX0XeXtXcXMX2 5X5X4X8X0XuXyXtXcXMX0X8X5X9XqX0X7X7X",
"qXqX8X6X5X8XuXyXwX7 bX$ 0 cXMXMX2X4X5X4X0XqX6XeXtXiXcXMX4X3X5X0X8X0X9X8XwXeXwX9XqXtXuXcXMX7X5X0XrXyXuXiXyXuXcXMX4X8X5X# 7X7XqXwX",
"qXqXqX8XwXqXtXeX7 9XbX$ nXcXMXMX2X5X4X5 6X8X0XrXiXkXcXMX4 1X8X0X8X9XeXrXwX9X0XeXtXyXyXcXMXwXqXrX8 0XtXtXyXuXcXMX3X6X7X5 6XqXtXtX",
"tXeX7 9XrXwXrXrXeXeXyX0 q cXMXMX< 3X8X9XrXeXrXrXuXpXcXMX1 4 8X0XtXrXyXiXeXrXrXrXyXuXpXcXMXrX9X7X6 0XrXrXyXiXcXMX7X7X0XuXqX0XeXeX",
"uXuXtXrXrXyXiXuXtXtXyXuXq cXMXMX2 6X9XwXeXeXwXeXyXiXcXMX4X6XwXyXiXyXiXiXtXtXuXuXuXpXaXcXMX9X9XqX0X$ tXyXpXpXcXMX6XqX9XrXeXeXeXeX",
"uXuXuXaXtXiXaXyXyXuXiXiXq cXMXMX0X5X4XwXeX0X0XeXtXuXcXMX7X0XqXtXyXuXpXuXyXyXq uXuXpXaXcXMX0X7 7 wXyXuXpXpXpXcXMXwXrXeXeXeXuXyXyX",
"uXuXyXuXpXkXaXuXuXiXpXpXpXcXMXMX1X6X4X6X8XqXqXeXrXyXcXMX9XwXrXyXuXiXuXuXiXpXpXpXpXaXpXcXMXrXyXrXyXpXiXpXpXpXcXMXtXtXtXyXyXyXuXiX",
"cXcXcXcXcXcXcXcXcXcXcXcXcXcXMXMX4X6X2X5X7XrXeXrXtXiXcXMXcXcXcXcXcXcXcXcXcXcXcXcXcXcXcXcXMXcXcXcXcXcXcXcXcXcXcXMXcXcXcXcXcXcXcXcX",
"MXMXMXMXMXMXMXMXMXMXMXMXMXMXMXMX7X4X5X9X0XwXrXuXpXkXcXMX4X1X6X3X3X8XqXqXcXMXMXMXMXMXMXMXMXMXMXMXMXMXMXMXMXMXMXMXMXMXMXMXMXMXMXMX",
"MX1X4X9X9X4X3X3X9X0XeX9X7XqXcXMX5X5X6X8X9XqXtXtXpXpXcXMX6X5X5X3X6X8X9X8 cXMX# <X1 1X3X3X4 0XtXcXMX2X4X1X2X5X3X3X8X0X2X4X6X6X8XcX",
"MX<X7X9X5X3X5X8X8X7X9X7XqXrXcXMX7X9X9XqXrXwXrXyXaXiXcXMX2X9X0X4X8X9XeXrXcXMX,X, B 2X4 4X8XrXrXcXMX<X3X2X3X5X3X3X5X5X1X6X7XqXqXcX",
"MX4X9X7X3X3X0XrX8X3X4X7XwXyXcXMX6X7XqXeXuXtXyXiXaXaXcXMX4 wXeX9XwXbXyXuXcXMX1 B 2X5X5X8XqXyXyXcXMX1X4X4X5X6X3X3X4X5X4X7XqXrXyXcX",
"MX5X# # # 4XwXeX9X5X8XwXtXiXcXMX7X8XeXtXiXuXyXiXpXpXcXMX9XrXrXeX$ $ uXq cXMX2 2X3X6X6XqXtXuXyXcXMX<X5X3X5X7X9X7X8X9X7X8XqXtXpXcX",
"MX4X2X3X3X7X0XqXqXqX9XrXyXiXcXMXeXrXuXuXnXiXyXpXaXiXcXMXqXyXtXvXvXnXuX0 cXMX# 5 6X5X5 8XwXyXuXcXMX1X6X6X7XqXqXqX6 7X9XqXeXtXaXcX",
"MX9X4X4X# 8XeXrXqXeXeXtXiXpXcXMXcXcXcXcXcXcXcXcXcXcXcXMXcXcXcXcXcXcXcXcXcXMX4X3X3X4X7XwXyXuXpXcXMX7XqX5X5X7XqXwX0X6 6 wXtXrXuXcX",
"MX7XwXwX0XtXtXtXwX0XeXtXkXaXcXMXMXMXMXMXMXMXMXMXMXMXMXMXMXMXMXMXMXMXMXMXMXMX3X5X# 5XqXeXrXyXyXcXMX<X5X5X6X7X8XwXeXeX9X0XeXbXuXcX",
"MXqXeXpXuXyXeXtXtXuXuXiXpXaXcXMXMXMX1X1X6X2X3X5X1X7X4X4X8X8X6X0X7X6X5 5 cXMX4X4X3X8X9XeXyXyXuXcXMX2X4X9X0X0XwXqX0XqXeX9XeXMXpXcX",
"MXeXeXyXpXuXyXyXpXyXyXuXiXpXcXMX3X4X3XB <X2X5X7X5X5X2X2X6X5X5X7X7X6X7X9X7 cX4 4 8XeX8XyXuXpXpXcXMX4X4X9X9X9XqX9X6XqX7X5XtXiXuXcX",
"MX9XwXrXiXiXiXuXiXyXuXiXpXaXcXMX7X9X2X<X3X8X8X9X9X9X6X9XwX4X5X9X8X6XqX9XeXcX7X9XtXuXyXuXuXiXpXcXMX1X2X6 6X9X0XqX8XqXqX0XqXyXaXcX",
"MXcXcXcXcXcXcXcXcXcXcXcXcXcXcXMX3X6X1X1X7X5X9X0X7X8X0X9X6X8X9X7 9X8XbXeXtXcXwXeXrXvXyXuXaXpXuXcXMX<X<X4 # 7XqXqX0XwXrXqX7XrXuXcX",
"MXMXMXMXMXMXMXMXMXMXMXMXMXMXMXMX5X6XqX5X7X7X0X9X0X8XeX0X6X0XqXwX8 7 $ uXuXcXcXcXcXcXcXcXcXcXcXcXMX3X2X7X6X8XeX9X0XeXeX0X7 rXuXcX",
"MX1 7X1X,X2 <X<X3X5X0X7X9XwXcXMX2X3X7X8X0XeXrXwXqX0X0XeX6X8XrX8 qXeXeXtXaXcXMXMXMXMXMXmXmXmXmXmXMX<XB 5X6X7X0X7X0X8X6XwXtXtXyXcX",
"MX<X8X4X4X6X3X6XqX1X6XeXeXrXcXMX4X5X0XwXrXrXeX0XqXwXeXwX0X0X8 $ qXeXtXtXnXcXMX1X1XB 5X4X2X5 6XcXMX1X2X4X6X8X8X8X0X6X5 rXuXuXiXcX",
"MX3X6X5X6X0X0XrX9X3X7XqXrXyXcXMX3X2X7X8X8X8X0X9XwXyXrXwX0X6 8 wX8X0XtXbX0 cXMX3X3X1X7X5X# 4 6 cXMX< 3X3X7X7X7X0X8X4 qXtXeX0 aXcX",
"MX7X4X3X6X8X0X0X7X5X9XwXeXyXcXMX2X3X2X5X5X6X0X0X9XqX0X0X6 eX8 8X6X0XeXbX0 cXMX1X1X1X1X6X8X6 bXcXMX2 2X4 5X8X8X0X0XqXtXyXtXuXpXcX",
"MX4X3X8X8X5 6X6X7X7XwXeXeXiXcXMX3X6X3X0X8X6X0X8X9X0X0X7X9X7X8X9X0XeXwX$ nXcXMX5X4X# 2 7XqXeXyXcXMX1X# 2 4 0X7X6XwXrXwX0XeXpXkXcX",
"MX4X7X0X5X4X8X8X7X9XwXqXrXpXcXMX2 4X8XqXwXqXqXwXwXqXqX9X9XqXwX0XeXtXrXyXnXcXMXB 3X3X6X8X9XwXiXcXMX, 1 4X5X8XqXwX0X8X3X9XwXaXsXcX",
"MX7X5X5X8X5X8X0X9XwXeXeXyXiXcXMX4 7X8X6X7XwXeXrX9X8 0X0XqXwXeXeXrXtXtXyXpXcXMX1X3X7X8X0XrXtXuXcXMX2 6X5 8X5X0XrXqXqX9X0XeXkXaXcX",
"MX7X9X4X7X6X8X9XqXrXeXyXiXaXcXMX8X4X7XqX0X8 eXwX9XwXqXeXwXwXrXyXtXyXyXyXiXcXMX4X5X7X7X0XyXiXpXcXMX# 2X1 4 5X0XeXeXqX9X8XtXaXuXcX",
"MX4X6X4X5X6X0XeXyXyXeXtXuXuXcXMX5X7X8XeXeX0XeXwXqXeXwXrXtXuXuXuXuXyXuXpXpXcXMX4X4 2X1X0XuXaXpXcXMX6X5X2 # 6X0X0XeXeX8XwXpXiXnXcX",
"MX2X5X4X6X9XwXyXyXwX7 yXuXuXcXMX4X7XwXtXeXtXyXvXrXtXrXrXuXiXiXpXyXnXpXsXkXcXMX# # 2 1XtXpXpXaXcXMX6X5X4 # 0XeXqXrXtXwXrXiX0 0 cX",
"MX3X4 5 8XqXeXqXwX0XeXuXyXnXcXMXcXeX$ rXtXuXuXnXiXpXyXuXsXaXuXpXiXiXpXcXcXcXMX2X8X9XqXtXeXrXMXcXMX2 1 4 wXrXeXwXeXwX0XyXyXyXyXcX",
"MX4X8X3X6X0XqX0X9X8XrXuXyXuXcXMXMXcXcXcXcXcXcXcXcXcXcXcXcXcXcXcXcXcXcXcXMXMXMX5 4 8XrXtXuXuXq cXMX4X# 7XeXtXyXwXqX6X7XqXeXyXq cX",
"MX7X8X3X5XqX0X0X8XqXyXuXuXiXcXMXMXMXMXMXMXMXMXMXMXMXMXMXMXMXMXMXMXMXMXMXMXMXMX# 5 8XrXuXaXpXMXcXMX0XvX6 5X0XyXeXqX7X7X9XeXpXsXcX",
"MX4X4X7X8XeXeXeXtXrXrXuXpXaXcXMX7X5X3X3X4X3X9X1 4X9X9XcXMX7XqXeX5X3X3XqX8XcXMX2X8XqXyXtXiXnXnXcXMX8XeX4 # eXyXyXwXtXqXeXuXaXaXcX",
"MX0X9XwXwXwXyXtXbX7 rXuXiXpXcXMX7X# 1 # 7X6X4X4X7X9X0XcXMXqX8XwXwX8X7XqXqXcXMX7XqXtXrXeX0 yXvXcXMX2X8X9XeXeXqXrXrXqXqXrXtXtX0 cX",
"MX7X8XqXeXwXrXeXqXeXtXtX$ uXcXMX3X<X# 6X7X6 7X4X8X6 8 cXMXwX6X7XuXrXtXtXtXcXMX8XwXqXwXrXyXiXnXcXMX<X5X0XrXqX7X0XrXeXqX8 rXyXnXcX",
"MX# 7XqXrXrXtXrXeXwXeX0 0 MXcXMX<X# 9X0XqX5 9X6 eXtXiXcXMX9X5X6XtXqX0XrXuXcXMX8XqXeX8 bXyXpXpXcXMX3X8X9XqXwXqXwXrXtXyXbXrXyXiXcX",
"MX7XqX0XeXwXeXyXyX$ yXyXpXkXcXMX2X6 0X0X$ qX8 eXvXiXpXcXMX6X6X6XeX0XqXuXuXcXMX0X9XqXrXtXyXiXuXcXMX6X7X0XwXyXaXiXuXuXpXiXuXnXq cX",
"MXqXwX9XeXtXyXyXyXq iXiXMXaXcXMX4 7 7 0X0 tX0 yXtXyXnXcXMX8X9X5XwXwXeXyXuXcXMX7 0XrXyXq pXaXmXcXMX7XeXtXtXuXpXiXiXuXuXuXpXkXkXcX",
"MXqXrXrXtXyXiXuX0 q pXw q pXcXMX7X7 0XtXuXtXrXtXtX0 pXcXMX5X7X7XeXrXyX0 yXcXMXcXcXcXcXcXcXcXcXcXMXyXtXyXyXpXuXuXpXpXuXuXpXkXkXcX",
"MXcXcXcXcXcXcXcXcXcXcXcXcXcXcXMX5XqXwXtXvX$ bXbXuXpXe cXMX2X8XqXyXtXuXvX$ cXMXMXMXMXMXMXMXMXMXMXMXcXcXcXcXcXcXcXcXcXcXcXcXcXcXcX",
"MXMXMXMXMXMXMXMXMXMXMXMXMXMXMXMX7 rXrXyXnX0 uXq aXaXe cXMX0X8XwXwXtXtXtXtXpXcXMXeX4X<X4X5 2X4X9X6X5X8X7X7XwXcXMXMXMXMXMXMXMXMXMX",
"3XwX4X2X3X7X1X5XrX7X7X6 6 cXMXMXqXtXyXuXq nXnXmXkXL.pXcXMX0X3X8XwXbXyXMXpXkXcXMXqX7X5X5X6 6X7XqX0X5X9XwXeXrXcXMX<X,X4X< < 1X6X3X",
"9X4X2X8X<XB 3X9X0X7 9X6 6 cXMXMXcXcXcXcXcXcXcXcXcXcXcXcXMXqX7X6 7 7 0 aXaXMXcXMXwX0X4X2X4X8X7 8X0X8XeXtXuXuXcXMX# 1 7X1X1 1 <X8X",
"9X1X3XqX2X4 qXuXwXeX7 6 8 cXMXMXMXMXMXMXMXMXMXMXMXMXMXMXMXrXwXeX8 0 uXw iXq cXMX0X0X6X5X8XwXqX7 0XwXqX9XtXuXcXMX1X9XwX5X1 <X4XwX",
"9X5X8X8X5XwXtXeXtXuXtXvXMXcXMX6X8X6X2X1X2X2X5X7X9X0X8 cXMX8 wXwXrXtXpXkXpXmXcXMX9XqXwXtXtXtX0 $ tXtXyXyXpXaXcXMX5X0X7X7X9X6X8X0X",
"5X6XqX0XeX9X5 7X7X0XrXpXiXcXMX1X3X4X3X3X7X5 7X8XwX7 8 cXMXeXtXrXyXiXpXe kXaXcXMXeXrXyXuXnX0 uXnXpXuXpXaXpXiXcXMX2X7X0X8XuXtX9X7X",
"5X6X7X8XqX7X9X0X8X7XeXuXiXcXMX7X5 eXqX7X8X5X0XwXqXrXyXcXMXcXcXcXcXcXcXcXcXcXcXMXcXcXcXcXcXcXcXcXcXcXcXcXcXcXcXMX4X9XrX6XuXyX0X7X",
"5X5X4X4 qXwX8XqX0XqXyXpXkXcXMX9X7XeX0X7X6X6X7XqXwXyXuXcXMXMXMXMXMXMXMXMXMXMXMXMXMXMXMXMXMXMXMXMXMXMXMXMXMXMXMXMX<X3X7X9XrXqX6X6X",
"6X4 5X5X6X9X0X8 9XeXyXaXkXcXMX4 2 4 7X5X9X9X9XtXeXyXuXcXMX2X<X<X5X4X1X2X5 5X7X6 7X6 2X1X4X6X4X3X9X7X8XrXqXcXMXMX<X2X5XwXeX8X7X6X",
"4 4 6X8X6 6 0XqX5 7 uXiXpXcXMX5 # 5 5 6X5XqXtXrXvXyXaXcXMX1 ,X1X4X3X3X8X6 5 7X6 6X5 5X2X<X3X4X3XtXwX0XwXwXcXMXMX<X6XrXtXqX7X6 7X",
"6X7X8XqXqX6 8XqX6 eXiXpXL.cXMX4X4 6X9X7X6XrXrXeXtXnXuXcXMX1X1X5X6X6X5X7X7X9X4X7X9X6 4X4X2X4XqXwXyXeXwXwXtXcXMXMX4XeXyXtXeX8X7X7X",
"9X0XeXwX8X6 eX6X8XuXiXiXMXcXMX5 5X9X9X0XwXyXqXqX$ tX0 cXMX1X3X9X5 6X0X9X9X9X6 5X4X6X5 6 6X8X8XyXuXeXeXeXuXcXMXMX4XqXrX9X0XqX8X8X",
"qXwXeXrXyXyXrX5 8XyXyX0 nXcXMX6X1 8XwXyXrXtXeXrXuXyXuXcXMX5X8XqX9XqXwXqXwXwX0X0X6X7X6 8XrXqXqXrXuXeXrXuXpXcXMXMX0X9X7X7X7X6X8XqX",
"0X0XqXrXyXqX7XeXqXeXtX0 0 cXMX# # rXqX8 qXwXtXrXyXuXpXcXMX7XwXeXeXtXtXeXwXtXwXbXbX8XqXeXtXtXrXeXyXyXyXyXpXcXMXMX6X4 3X5X6X5X6XqX",
"0X0X9X0XeX6 6 yX0XqXuXnX0 cXMX5 8XeXqX6 bXeXiXuXyXiXkXcXMXwXeXrXrXyXuXuXyXtX0 yXyX8 eXtXyXvXbXtXyXuXpXpXaXcXMXMX2 1 4X0X6X4 9X0X",
"9X9XqXwXqX7X8XrX7X9XtXyXnXcXMX7XqXtXrXrXeXrXpXuXpXaXaXcXMXtXrX$ nXuXtXuXiXaXaXaXpXyXuXuXuXuXyXuXpXkXaXpXaXcXMXMX2X4 7XwX7 8X0X9X",
"wXwXqX0XeXqXqXeX8X0XwXuXaXcXMX7XeXtXtXtXyXpXuXMXkXkXaXcXMXeXrX0 q pXaXMXpXsXsXsXaXaXmXMXiXpXsXkXpXkXkXaXpXcXMXMX2X3X5X8X9XeXrXwX",
"0XqXrXrX0X9XqXtXwX0XwXiXsXcXMXqXeXrXuXyXiXpXpXpXL.kXq cXMXcXcXcXcXcXcXcXcXcXcXcXcXcXcXcXcXcXcXcXcXcXcXcXcXcXMXMX4X4X5X8X9XrXpXyX"
};
