/* XPM */
static char *Free_Converter_com_diamondred_63854851[] = {
/* columns rows colors chars-per-pixel */
"64 64 256 2 ",
"   c black",
".  c #0000A8",
"X  c #00A800",
"o  c #00A8A8",
"O  c #A80000",
"+  c #A800A8",
"@  c #A85400",
"#  c #4C4436",
"$  c gray33",
"%  c #5454FC",
"&  c #524A42",
"*  c #5E5246",
"=  c #736352",
"-  c #685D4C",
";  c #FCFC54",
":  c gray99",
">  c #ECECEC",
",  c gainsboro",
"<  c #D0D0D0",
"1  c #C0C0C0",
"2  c #B4B4B4",
"3  c gray66",
"4  c #989898",
"5  c gray55",
"6  c #7C7C7C",
"7  c gray44",
"8  c #646464",
"9  c gray33",
"0  c #484848",
"q  c gray22",
"w  c #2C2C2C",
"e  c #202020",
"r  c #FC0000",
"t  c #EC0000",
"y  c #E00000",
"u  c #D40000",
"i  c #C80000",
"p  c #BC0000",
"a  c #B00000",
"s  c #A40000",
"d  c #980000",
"f  c #880000",
"g  c #7C0000",
"h  c #700000",
"j  c #640000",
"k  c #580000",
"l  c #4C0000",
"z  c #400000",
"x  c #FCD8D8",
"c  c #FCB8B8",
"v  c #FC9C9C",
"b  c #FC7C7C",
"n  c #FC5C5C",
"m  c #FC4040",
"M  c #FC2020",
"N  c #FC0000",
"B  c #FCA85C",
"V  c #FC9840",
"C  c #FC8820",
"Z  c #FC7800",
"A  c #E46C00",
"S  c #CC6000",
"D  c #B45400",
"F  c #9C4C00",
"G  c #FCFCD8",
"H  c #FCFCB8",
"J  c #FCFC9C",
"K  c #FCFC7C",
"L  c #FCF85C",
"P  c #FCF440",
"I  c #FCF420",
"U  c #FCF400",
"Y  c #E4D800",
"T  c #CCC400",
"R  c #B4AC00",
"E  c #9C9C00",
"W  c #848400",
"Q  c #706C00",
"!  c #585400",
"~  c #404000",
"^  c #849C7B",
"/  c #738C6B",
"(  c #6B7B63",
")  c #637352",
"_  c #5A6B52",
"`  c #525A4A",
"'  c #4A5242",
"]  c #425239",
"[  c #394A39",
"{  c #313931",
"}  c #313929",
"|  c #293129",
" . c #293121",
".. c #212921",
"X. c #182118",
"o. c #181818",
"O. c #00FC00",
"+. c #00EC00",
"@. c #00E000",
"#. c #00D400",
"$. c #04C800",
"%. c #04BC00",
"&. c #04B000",
"*. c #04A400",
"=. c #049800",
"-. c #048800",
";. c #047C00",
":. c #047000",
">. c #046400",
",. c #045800",
"<. c #044C00",
"1. c #044000",
"2. c #C8BFB2",
"3. c #A89A85",
"4. c #9A8C77",
"5. c #7CFCF8",
"6. c #5CFCFC",
"7. c #40FCFC",
"8. c #20FCFC",
"9. c #00FCFC",
"0. c #00E4E4",
"q. c #00CCCC",
"w. c #00B4B4",
"e. c #009C9C",
"r. c #008484",
"t. c #007070",
"y. c #005858",
"u. c #004040",
"i. c #94846B",
"p. c #8C7B67",
"a. c #847B63",
"s. c #81735D",
"d. c #7B6B5A",
"f. c #007CCC",
"g. c #006CB4",
"h. c #005C9C",
"j. c #736B5A",
"k. c #736B52",
"l. c #9C9CFC",
"z. c #7C80FC",
"x. c #5C60FC",
"c. c #4040FC",
"v. c #2024FC",
"b. c #0004FC",
"n. c #0000FC",
"m. c #0000EC",
"M. c #0000E0",
"N. c #0000D4",
"B. c #0000C8",
"V. c #0000BC",
"C. c #0000B0",
"Z. c #0000A4",
"A. c #000098",
"S. c #000088",
"D. c #00007C",
"F. c #000070",
"G. c #000064",
"H. c #000058",
"J. c #00004C",
"K. c #000040",
"L. c #282828",
"P. c #FCE034",
"I. c #FCD424",
"U. c #FCCC18",
"Y. c #FCC008",
"T. c #FCB400",
"R. c #B420FC",
"E. c #A800FC",
"W. c #9800E4",
"Q. c #8000CC",
"!. c #7400B4",
"~. c #60009C",
"^. c #500084",
"/. c #440070",
"(. c #340058",
"). c #280040",
"_. c #FCD8FC",
"`. c #FCB8FC",
"'. c #FC9CFC",
"]. c #FC7CFC",
"[. c #FC5CFC",
"{. c #FC40FC",
"}. c #FC20FC",
"|. c #FC00FC",
" X c #E000E4",
".X c #C800CC",
"XX c #B400B4",
"oX c #9C009C",
"OX c #840084",
"+X c #6C0070",
"@X c #580058",
"#X c #400040",
"$X c #FCE8DC",
"%X c #FCE0D0",
"&X c #FCD8C4",
"*X c #FCD4BC",
"=X c #FCCCB0",
"-X c #FCC4A4",
";X c #FCBC9C",
":X c #FCB890",
">X c #FCB080",
",X c #FCA470",
"<X c #FC9C60",
"1X c #F0945C",
"2X c #E88C58",
"3X c #DC8854",
"4X c #D08050",
"5X c #C87C4C",
"6X c #BC7848",
"7X c #B47044",
"8X c #A86840",
"9X c #A0643C",
"0X c #9C6038",
"qX c #905C34",
"wX c #885830",
"eX c #80502C",
"rX c #744C28",
"tX c #6C4824",
"yX c #5C4020",
"uX c #543C1C",
"iX c #483818",
"pX c #403018",
"aX c #382C14",
"sX c #28200C",
"dX c #600064",
"fX c #006464",
"gX c #006060",
"hX c #00001C",
"jX c #00002C",
"kX c #302410",
"lX c #480048",
"zX c #500050",
"xX c #000034",
"cX c gray11",
"vX c #4C4C4C",
"bX c gray36",
"nX c gray25",
"mX c gray19",
"MX c #343434",
"NX c #2E2B22",
"BX c #B8E8E8",
"VX c #9CDCDC",
"CX c #74C8C8",
"ZX c #48C0C0",
"AX c #20B4B4",
"SX c #20B0B0",
"DX c #00A4A4",
"FX c #009898",
"GX c #008C8C",
"HX c #008484",
"JX c #007C7C",
"KX c #007878",
"LX c #007474",
"PX c #007070",
"IX c #006C6C",
"UX c #980088",
/* pixels */
"6 4 6 6 5 4 6 6 6 6 6 6 5 5 6 6 5 5 6 6 7 7 4 4 5 6 6 7 7 5 $ p p 4 6 5 6 6 6 5 6 6 6 6 6 6 5 7 7 6 6 7 7 6 7 6 5 6 6 6 6 6 6 6 ",
"7 5 6 6 5 4 6 7 6 7 6 6 6 5 4 5 6 5 6 6 7 bX6 5 6 5 5 6 6 $ p d f p 4 5 5 5 6 5 5 6 6 5 5 5 6 7 7 6 7 7 6 5 6 7 6 6 7 bX7 6 6 6 ",
"7 6 5 4 4 5 5 7 6 7 6 5 5 5 5 5 5 5 6 6 6 6 5 5 6 6 4 5 $ p f f d f p 4 5 6 6 6 5 6 7 6 6 6 5 6 7 6 7 7 7 6 6 6 5 6 7 7 7 7 5 6 ",
"5 7 6 4 4 4 5 6 5 5 6 5 6 5 6 5 6 6 5 5 4 7 5 5 7 6 6 $ p f d f d g g p 4 6 6 6 6 7 bX7 6 6 5 6 6 6 7 6 7 bX7 7 7 6 6 6 7 bX6 5 ",
"6 7 6 5 5 4 5 6 5 6 6 5 6 5 4 5 5 5 6 5 6 6 6 6 7 6 $ p j f d g f d f g p 4 6 7 6 6 7 6 6 5 6 6 6 6 7 6 7 7 6 5 5 5 6 6 7 bX7 5 ",
"6 7 6 5 6 5 5 5 5 6 7 5 5 5 5 5 5 6 6 6 7 6 6 5 6 $ p g f d d f f d g g g p 4 6 6 5 5 6 7 6 5 4 5 5 6 6 5 5 5 5 5 6 7 7 bXbXbX5 ",
"6 6 6 6 6 5 5 5 5 6 6 5 5 5 5 5 5 5 6 6 6 5 6 6 $ p d f g g g d d f k g d d p 4 6 5 6 6 6 6 5 5 5 5 6 5 5 5 7 5 7 6 6 7 bXbX7 5 ",
"5 6 5 5 6 5 5 6 5 5 4 4 5 5 6 6 6 5 6 6 5 5 6 $ p f f j j j g O g f g j g f d p 4 6 5 5 5 4 4 5 5 5 5 4 6 6 7 5 5 5 6 6 6 6 5 5 ",
"6 6 6 6 6 5 5 6 5 6 5 4 5 5 6 7 6 5 6 7 6 6 $ p j g g g g d g O g g f f f g d f p 4 6 4 4 5 5 5 5 5 6 5 6 7 6 6 4 5 5 5 5 5 5 5 ",
"7 6 7 7 7 6 5 5 6 7 6 7 7 6 6 7 5 6 7 6 6 $ p f g j j g f f d d f f g g d f f g d p 4 5 6 6 6 5 5 6 6 5 5 7 7 6 6 6 6 5 5 4 5 6 ",
"7 5 6 5 5 4 5 6 7 7 7 7 7 7 7 6 6 5 7 5 $ p d d f g j g f f f g j j j f d g f f d O p 4 7 6 5 5 6 7 bX7 6 7 7 6 5 5 5 5 5 6 6 7 ",
"6 6 5 5 5 5 5 6 6 6 7 bX7 6 6 6 6 5 6 $ p d O d f g g k g f f f j f d f O d j d d O O p 4 5 5 5 6 7 7 7 6 7 7 7 7 6 5 5 5 5 5 6 ",
"5 6 6 6 6 5 5 5 6 5 5 6 6 6 5 5 5 4 $ p g f d d d f g g g g f d d O d j f d j g d d d d p 4 7 6 6 6 6 6 6 6 6 7 7 7 6 7 6 4 6 6 ",
"5 5 6 6 7 6 5 4 5 5 4 5 6 5 5 5 5 $ p j g f d d d f g g g f f O f O f j f d f d O d d O f p 4 7 6 6 7 6 6 6 5 5 6 6 7 7 7 5 5 5 ",
"5 5 7 5 6 6 5 5 5 5 5 6 5 5 4 4 $ p d f g g f O d f g f g f f d g d f g d f f f f d O d g d p 4 6 5 5 6 6 5 5 5 6 6 6 6 7 5 5 5 ",
"5 6 7 6 6 5 4 5 6 5 5 5 5 5 5 $ p d O d d f d d f f f d j j g d d d f g d f O d d d d d d O d p 4 5 4 7 bX6 6 5 5 6 6 5 7 6 7 6 ",
"6 6 6 7 6 5 4 5 5 6 6 5 5 5 $ p f d O d d d f f f f f g k g d d O f g O O d f g f g f d O a a a p 4 5 6 7 6 6 5 6 6 5 5 7 7 7 5 ",
"6 6 6 7 6 7 6 5 5 6 6 5 6 $ p d d d d f f g f f f f f g f d O d a d d O O f g g f f j d a O d O d p 4 6 6 6 7 6 7 6 7 7 7 bXbX5 ",
"6 6 6 bX6 bX7 7 7 6 6 6 $ p O d d g g f d d g f g g g f d d d d a d O d f d f f d g f d a d d d d d p 4 6 6 7 7 6 6 6 6 6 bXbX7 ",
"6 5 6 7 6 7 7 6 6 6 6 $ p d d d f j g g f f d d d f j f d f f d d O d d f d f g f g d d d f f O O d d p 4 bX7 6 5 6 6 6 7 7 7 6 ",
"5 6 5 6 6 6 6 5 6 5 $ p d d f d f f f f d d d d d d g d d d f d d O d d d d f f d d d d d f g d d f d d p 4 6 5 6 6 6 6 6 6 7 6 ",
"6 5 6 7 6 5 5 4 5 $ p f d d d O d d d d d d d d d d f d d d d j g j g d O O d f f d d j g d f f d f f d j p 4 6 6 6 6 5 5 7 6 5 ",
"6 6 7 bX7 6 5 6 $ p j f d f d f d d f d d O d d d O f f d d d g f j d O d d f d d d f g f d d d d d d f g f p 4 5 5 5 5 5 7 6 6 ",
"6 7 7 5 5 5 5 $ p g f d d d f g d d f d d d d f d a d d d g f d f g f f d f g d O d d d f d f f f f d f g f d p 4 5 6 6 5 6 7 7 ",
"7 7 7 6 6 7 $ p f f f f g f f g d f f d d f d d d d d f f d d g g d d d f d f f d g f g g g j g f f f f d f j d p 4 7 6 6 6 6 bX",
"$ 6 6 6 6 $ p O d g f g k f f O O d f d d f d f g g j f d f f f j j f d d O g j f j g f j j j g g f f f d f f d d p 4 6 7 7 6 bX",
"7 6 6 6 $ p d d d f g g g d f d d O f O d g f d d g f d d f f g g j f d O f g g f g f g g k k j g d f f f d d d d f p 4 7 7 bXbX",
"7 7 7 $ p O d g f g f f j d d g d O O a d d j f f j g f d f d f d f f f d g g d d d d f d g g f f f f O O d d d O d d p 4 7 7 bX",
"6 6 $ p g f f f g j d f j f f f d O d d f d g d g g g d O d g d d d f f f f d a O d g d d f d d f f f d d d O O O d d d p 4 6 7 ",
"6 $ p d g d d d j j g g f g j d d d d f g f O f k j d O d j j d d d d d d O d d d d d d d g d d d O d d d f d d d d f f d p 4 6 ",
"$ p g d d d O d g f d d d d d f f d d d f g f j d d O d f f d f f f g O O d f g f g f d O a a a O O O d f d d d f d d d d j p 4 ",
"p g O d j f d j g d d d d d d j f f O d f f O d O a a O d d d d f f d O O f g g f f j d a O d O d d O d f f d f f d O d f g d p ",
"g g O f j f d f d O d d O f d g d d O f g d O d O O d d d d d f d d f f f O d g d d d f d d d f f d d f d f f g j j g f f d d g ",
"$ l f g d d f d d d d f g j g g g d d f f g j g f g g f d d d f f f d g j f O d d f f d f f g j f f g d d d d f g j g f f f l 4 ",
"6 $ l f d f g d d d d f d f g g d f d g g j g d d g f d f f g j f f f f d f g d d d d f d f g g d f d g g j g d d g f d f l 4 bX",
"5 6 $ l g f d d d d O d d g f f f j f d g j g f d f f d d f d f f f j g g f d d d d O d d g f f f j f d g j g f d f f d l 4 5 6 ",
"5 7 6 $ l f d g f d d d d j g d d j d d g g g g d d d d d f d d d g k j j f d g f d d d d j g d d j d d g g g g d d d l 4 bX6 7 ",
"6 7 6 5 $ l d g j d d d d O d f d d O O d d d O O d O f j f d d d f k j g f d g j d d d d O d f d d O O d d d O O d l 4 7 bX7 6 ",
"6 7 6 5 6 $ l j j f d f f d d f f d d O d d d d d d f g f d d f f d j k j g d j j f d f f d d f f d d O d d d d d l 4 7 bXbXbX6 ",
"6 6 6 6 6 5 $ l f f f g f g d d d f f g g f g g f d d f g g g g f f j j j j g g f f f g f g d d d f f g g f g g l 4 6 7 bXbX7 5 ",
"6 6 5 5 6 5 5 $ l d d f d O O d f f f g g j g f g f f j j j g f d j g g g k l f f d d f d O O d f f f g g j g l 4 5 6 6 6 6 5 5 ",
"7 6 6 6 6 5 5 6 $ l d d d O O d f f f f f g g f j g g g g d g d d f f k k k f d j d d d d O O d f f f f f g l 4 4 5 5 5 5 5 5 6 ",
"5 6 7 7 7 6 5 5 6 $ l d f d d d f f d d f d f f g j j g f f d d f f g f f f O d g d d d f d d d f f d d f l 4 6 6 6 6 5 5 4 5 6 ",
"5 5 6 5 5 4 5 6 7 7 $ l d f f g j f f g d d d d f g j g f f f f d f d d g j f O d d f f d f f g j f f g l 4 7 6 5 5 5 5 5 6 6 6 ",
"5 6 5 5 5 5 5 6 6 6 7 $ l f g d f f f g g d O d f g g k g f f d d d d f f g d O f d f d d f g d f f f l 4 7 7 7 7 6 5 5 5 5 5 6 ",
"5 6 6 6 6 5 5 5 6 5 5 6 $ l f d d d d g g f d d d f g g g g f f g g d f f g d O f f d f g f f d d d l 4 6 6 6 7 7 7 6 7 6 4 6 7 ",
"6 5 6 6 7 6 5 4 5 5 4 5 6 $ l f d d f j g f d d d f g g g f f f f g f f f g f g g f f f f f d f d l 4 6 6 6 5 5 6 6 7 7 7 5 5 6 ",
"6 5 7 5 6 6 5 5 5 5 5 6 5 5 $ l d d d f g g f O d f g f g f f j d g f f f f f j d f j j d O O d l 4 5 6 6 5 5 5 6 6 6 6 7 5 5 6 ",
"6 6 7 6 6 5 4 5 6 5 5 5 5 5 5 $ l d O d d f d d f f f d j j g g d g g f g g f f d d g g d O O l 4 5 4 7 bX6 6 5 5 6 6 5 7 6 7 7 ",
"7 6 6 7 6 5 4 5 5 6 6 5 5 5 5 5 $ l O d d d f f f f f g k g d f d d f f d d f O d d d f d d l 4 5 5 5 6 7 6 6 5 6 6 5 5 7 7 7 6 ",
"6 6 6 7 6 7 6 5 5 6 6 5 6 6 5 5 6 $ l f f g f f f f f g f d O d O d d g d O d O d f O d O l 4 5 5 6 6 6 6 6 7 6 7 6 7 7 7 bXbX6 ",
"7 6 6 bX6 bX7 7 7 6 6 6 5 5 5 5 6 6 $ l d d g f g g g f d d d d d f g d d d f d f f d d l 4 5 5 5 5 6 6 6 6 7 7 6 6 6 6 6 bXbX7 ",
"bX5 6 7 6 7 7 6 6 6 6 6 5 5 5 7 7 7 7 $ l f d d d f j f d f f d d d d O a a O d f d d l 4 5 5 5 7 6 7 6 7 bX7 6 5 6 6 6 7 7 7 7 ",
"6 6 5 6 6 6 6 5 6 5 5 6 5 6 6 7 7 bX6 6 $ l d d d d g d d d f d d f f f d d O d d f l 4 5 5 5 6 7 7 7 7 7 7 6 5 6 6 6 6 6 6 7 7 ",
"7 5 6 7 6 5 5 4 5 6 6 7 5 6 6 7 bXbX7 6 7 $ l d d d f d d d d f d d d j f f d d d l 4 5 6 5 5 6 6 6 6 5 5 6 6 6 6 6 6 5 5 7 6 7 ",
"7 6 7 bX7 6 5 6 6 6 7 7 6 6 7 5 7 7 bX7 7 7 $ l d O f f d d d f d d d d d j f d l 4 7 6 5 5 6 7 7 6 6 5 5 7 6 6 5 5 5 5 5 7 6 7 ",
"bX7 7 5 5 5 5 7 7 6 7 7 7 7 7 6 6 6 7 7 7 bXbX$ l a d d d g f d d d O j g f f l 4 6 6 6 5 6 6 6 6 5 5 6 6 7 7 7 6 5 6 6 5 6 7 bX",
"6 7 7 6 6 7 7 7 bX7 7 6 7 7 7 6 5 5 7 5 6 7 6 6 $ l d f f d d f g d d g g f l 4 7 7 6 5 6 6 7 6 5 5 5 5 6 7 7 7 bXbX7 6 6 6 6 7 ",
"5 6 6 6 6 bXbX7 bX$ 6 6 7 7 7 6 5 5 6 5 5 6 5 5 6 $ l f d f f g k d f d d l 4 6 6 6 6 5 5 6 7 6 7 7 6 6 6 7 6 7 7 bX6 6 7 7 6 6 ",
"5 6 6 6 5 5 6 6 bX7 6 7 7 7 7 6 6 7 bXbXbX6 5 7 6 7 $ l d f f g g d f f l 4 bX6 5 5 5 6 6 7 bX7 7 bX7 7 7 7 6 6 7 bX6 6 7 7 bX6 ",
"5 7 7 6 5 5 6 bXbX7 6 bXbXbX7 6 6 6 7 bXbX6 5 7 7 7 6 $ l f d f j d d l 4 7 6 6 5 5 5 5 6 6 7 bX7 $ bX7 7 6 6 6 7 6 7 7 bX7 7 6 ",
"6 6 6 7 6 6 6 bX7 6 6 6 7 7 7 7 7 7 7 7 7 6 6 7 7 7 6 6 $ l g f j f l 4 5 7 6 5 5 5 5 5 5 6 6 7 7 7 6 6 7 6 6 6 7 6 6 6 7 7 6 6 ",
"6 6 6 6 6 6 7 bX6 6 6 6 6 7 7 7 7 7 6 7 7 6 6 6 6 6 7 7 7 $ l g f l 4 7 7 7 6 5 6 5 6 6 6 5 5 6 6 6 5 6 7 7 6 5 5 5 5 6 6 6 7 6 ",
"6 7 7 6 6 6 6 6 6 6 6 6 6 7 7 6 6 6 6 6 6 6 6 7 7 7 6 7 6 6 $ l l 4 6 6 6 7 6 5 4 5 5 4 5 6 5 5 5 5 5 5 6 6 6 6 5 6 7 7 6 7 bX7 "
};
