/* XPM */
static char *___patternbrown[] = {
/* columns rows colors chars-per-pixel */
"64 64 256 2",
"   c black",
".  c #0000A8",
"X  c #00A800",
"o  c #00A8A8",
"O  c #A80000",
"+  c #A800A8",
"@  c #A85400",
"#  c #4C4436",
"$  c gray33",
"%  c #5454FC",
"&  c #524A42",
"*  c #5E5246",
"=  c #736352",
"-  c #685D4C",
";  c #FCFC54",
":  c gray99",
">  c #ECECEC",
",  c gainsboro",
"<  c #D0D0D0",
"1  c #C0C0C0",
"2  c #B4B4B4",
"3  c gray66",
"4  c #989898",
"5  c gray55",
"6  c #7C7C7C",
"7  c gray44",
"8  c #646464",
"9  c gray33",
"0  c #484848",
"q  c gray22",
"w  c #2C2C2C",
"e  c #202020",
"r  c #FC0000",
"t  c #EC0000",
"y  c #E00000",
"u  c #D40000",
"i  c #C80000",
"p  c #BC0000",
"a  c #B00000",
"s  c #A40000",
"d  c #980000",
"f  c #880000",
"g  c #7C0000",
"h  c #700000",
"j  c #640000",
"k  c #580000",
"l  c #4C0000",
"z  c #400000",
"x  c #FCD8D8",
"c  c #FCB8B8",
"v  c #FC9C9C",
"b  c #FC7C7C",
"n  c #FC5C5C",
"m  c #FC4040",
"M  c #FC2020",
"N  c #FC0000",
"B  c #FCA85C",
"V  c #FC9840",
"C  c #FC8820",
"Z  c #FC7800",
"A  c #E46C00",
"S  c #CC6000",
"D  c #B45400",
"F  c #9C4C00",
"G  c #FCFCD8",
"H  c #FCFCB8",
"J  c #FCFC9C",
"K  c #FCFC7C",
"L  c #FCF85C",
"P  c #FCF440",
"I  c #FCF420",
"U  c #FCF400",
"Y  c #E4D800",
"T  c #CCC400",
"R  c #B4AC00",
"E  c #9C9C00",
"W  c #848400",
"Q  c #706C00",
"!  c #585400",
"~  c #404000",
"^  c #849C7B",
"/  c #738C6B",
"(  c #6B7B63",
")  c #637352",
"_  c #5A6B52",
"`  c #525A4A",
"'  c #4A5242",
"]  c #425239",
"[  c #394A39",
"{  c #313931",
"}  c #313929",
"|  c #293129",
" . c #293121",
".. c #212921",
"X. c #182118",
"o. c #181818",
"O. c #00FC00",
"+. c #00EC00",
"@. c #00E000",
"#. c #00D400",
"$. c #04C800",
"%. c #04BC00",
"&. c #04B000",
"*. c #04A400",
"=. c #049800",
"-. c #048800",
";. c #047C00",
":. c #047000",
">. c #046400",
",. c #045800",
"<. c #044C00",
"1. c #044000",
"2. c #C8BFB2",
"3. c #A89A85",
"4. c #9A8C77",
"5. c #7CFCF8",
"6. c #5CFCFC",
"7. c #40FCFC",
"8. c #20FCFC",
"9. c #00FCFC",
"0. c #00E4E4",
"q. c #00CCCC",
"w. c #00B4B4",
"e. c #009C9C",
"r. c #008484",
"t. c #007070",
"y. c #005858",
"u. c #004040",
"i. c #94846B",
"p. c #8C7B67",
"a. c #847B63",
"s. c #81735D",
"d. c #7B6B5A",
"f. c #007CCC",
"g. c #006CB4",
"h. c #005C9C",
"j. c #736B5A",
"k. c #736B52",
"l. c #9C9CFC",
"z. c #7C80FC",
"x. c #5C60FC",
"c. c #4040FC",
"v. c #2024FC",
"b. c #0004FC",
"n. c #0000FC",
"m. c #0000EC",
"M. c #0000E0",
"N. c #0000D4",
"B. c #0000C8",
"V. c #0000BC",
"C. c #0000B0",
"Z. c #0000A4",
"A. c #000098",
"S. c #000088",
"D. c #00007C",
"F. c #000070",
"G. c #000064",
"H. c #000058",
"J. c #00004C",
"K. c #000040",
"L. c #282828",
"P. c #FCE034",
"I. c #FCD424",
"U. c #FCCC18",
"Y. c #FCC008",
"T. c #FCB400",
"R. c #B420FC",
"E. c #A800FC",
"W. c #9800E4",
"Q. c #8000CC",
"!. c #7400B4",
"~. c #60009C",
"^. c #500084",
"/. c #440070",
"(. c #340058",
"). c #280040",
"_. c #FCD8FC",
"`. c #FCB8FC",
"'. c #FC9CFC",
"]. c #FC7CFC",
"[. c #FC5CFC",
"{. c #FC40FC",
"}. c #FC20FC",
"|. c #FC00FC",
" X c #E000E4",
".X c #C800CC",
"XX c #B400B4",
"oX c #9C009C",
"OX c #840084",
"+X c #6C0070",
"@X c #580058",
"#X c #400040",
"$X c #FCE8DC",
"%X c #FCE0D0",
"&X c #FCD8C4",
"*X c #FCD4BC",
"=X c #FCCCB0",
"-X c #FCC4A4",
";X c #FCBC9C",
":X c #FCB890",
">X c #FCB080",
",X c #FCA470",
"<X c #FC9C60",
"1X c #F0945C",
"2X c #E88C58",
"3X c #DC8854",
"4X c #D08050",
"5X c #C87C4C",
"6X c #BC7848",
"7X c #B47044",
"8X c #A86840",
"9X c #A0643C",
"0X c #9C6038",
"qX c #905C34",
"wX c #885830",
"eX c #80502C",
"rX c #744C28",
"tX c #6C4824",
"yX c #5C4020",
"uX c #543C1C",
"iX c #483818",
"pX c #403018",
"aX c #382C14",
"sX c #28200C",
"dX c #600064",
"fX c #006464",
"gX c #006060",
"hX c #00001C",
"jX c #00002C",
"kX c #302410",
"lX c #480048",
"zX c #500050",
"xX c #000034",
"cX c gray11",
"vX c #4C4C4C",
"bX c gray36",
"nX c gray25",
"mX c gray19",
"MX c #343434",
"NX c #2E2B22",
"BX c #B8E8E8",
"VX c #9CDCDC",
"CX c #74C8C8",
"ZX c #48C0C0",
"AX c #20B4B4",
"SX c #20B0B0",
"DX c #00A4A4",
"FX c #009898",
"GX c #008C8C",
"HX c #008484",
"JX c #007C7C",
"KX c #007878",
"LX c #007474",
"PX c #007070",
"IX c #006C6C",
"UX c #980088",
/* pixels */
"iXiXo.kXkXNXNXkXkXNXkXNXkXkXo.NXpXNXNXkXpXpXpXpXkXNXpXNXkXNXpXpXiXNXpXpXpXNXNXpXpXpXNXpXpXpXNXNXpXo.kXkXkXkXkXkXkXNXNXkXkXo.iXiX",
"iXpXo.NXNXkXkXNXkXNXNXkXkXkXo.pXNXNXpXNXNXpXNXpXNXNXNXpXNXNXpXpXNXNXpXNXpXpXNXpXNXpXNXNXNXNXNXpXpXo.kXkXkXkXkXkXNXNXNXkXkXo.pXiX",
"o.o.o.o.kXkXkXNXkXNXkXNXNXo.o.o.o.o.NXNXkXNXpXNXNXpXNXNXNXNXpXpXpXNXNXNXpXpXNXNXNXNXNXNXNXNXo.o.o.o.o.kXkXkXkXkXkXkXkXNXkXo.o.o.",
"kXkXNXo.o.kXkXkXkXNXkXkXo.o.kXkXkXo.o.NXpXpXNXNXNXpXpXNXpXNXNXpXpXpXNXNXpXpXNXNXNXNXNXpXpXo.o.kXkXkXo.o.kXkXkXkXkXkXkXkXo.o.kXkX",
"kXNXkXkXo.o.kXkXkXkXkXo.o.kXkXkXkXkXo.o.pXpXNXNXNXNXNXpXNXpXNXpXpXNXNXNXpXpXiXNXNXiXNXNXo.o.kXkXkXkXkXo.o.kXNXkXkXNXkXo.o.kXkXkX",
"kXNXNXkXNXo.o.kXkXNXo.o.kXkXkXkXkXkXkXo.o.NXpXNXNXkXpXpXpXNXNXpXNXNXpXpXpXpXNXpXpXNXkXo.o.kXkXkXkXkXkXkXo.o.kXkXkXkXo.o.kXkXkXkX",
"kXkXkXkXkXkXo.o.o.o.o.kXNXNXkXkXkXkXkXkXo.o.NXpXNXNXiXNXpXNXpXNXpXNXpXpXpXpXNXNXpXNXo.o.kXkXkXNXkXNXkXkXkXo.o.o.o.o.o.kXkXNXkXNX",
"NXkXkXkXkXkXo.pXiXpXo.kXkXkXkXNXNXkXkXkXkXo.o.pXNXpXNXpXpXiXpXpXpXpXNXpXpXpXNXNXpXo.o.kXkXkXkXkXkXkXkXkXkXo.pXiXpXo.kXkXkXkXkXNX",
"NXkXkXkXkXkXo.iXiXiXo.kXkXkXkXkXkXNXkXkXNXkXo.kXNXpXNXNXNXNXpXpXNXNXNXpXpXpXpXpXpXo.kXkXkXkXkXNXNXkXkXkXkXo.iXiXiXo.kXkXkXkXNXNX",
"kXkXkXNXkXkXo.pXiXpXo.kXkXkXkXkXNXkXkXkXkXkXo.kXNXpXNXNXNXNXpXpXNXkXNXpXpXpXpXiXNXo.kXkXkXNXkXNXkXkXkXkXkXo.pXiXpXo.kXkXkXkXkXkX",
"NXNXkXkXkXo.o.o.o.o.o.o.kXkXkXNXkXkXNXkXkXo.o.o.o.o.NXNXNXpXpXpXNXNXNXNXpXpXo.o.o.o.o.kXkXkXNXkXkXkXkXkXkXo.o.o.o.o.o.kXkXkXkXNX",
"kXNXkXkXo.o.kXkXkXkXkXo.NXkXkXkXkXkXkXkXo.o.kXkXkXo.o.NXNXNXpXpXpXNXNXNXpXo.o.kXkXkXo.o.kXNXkXkXkXNXNXkXo.o.kXkXkXkXo.o.kXNXkXkX",
"kXkXkXo.o.kXkXkXNXkXkXkXo.o.kXkXkXkXkXo.o.kXkXkXkXkXo.o.pXpXNXpXpXiXpXpXo.o.kXNXkXkXkXo.o.kXNXkXkXkXkXo.o.NXkXkXkXkXkXo.o.kXkXkX",
"kXkXo.o.kXNXkXkXkXkXkXkXkXo.o.kXkXkXo.o.kXkXkXkXNXkXkXo.o.NXiXpXpXpXpXo.o.kXkXNXkXkXkXNXo.o.kXkXkXkXo.o.kXkXkXkXkXkXkXkXo.o.kXkX",
"o.o.o.kXkXkXNXkXkXNXNXNXkXkXo.o.o.o.o.kXkXkXkXNXkXNXkXNXo.o.NXNXpXNXo.o.kXkXkXkXkXkXkXkXkXo.o.o.o.o.o.kXkXkXNXkXkXkXkXkXkXo.o.o.",
"iXNXo.kXkXkXkXNXkXkXkXkXkXkXo.pXiXpXo.kXkXkXNXkXNXkXkXkXkXo.o.NXpXo.o.kXkXkXkXkXkXNXkXkXkXo.pXiXpXo.kXkXkXkXkXkXkXkXkXkXkXo.pXNX",
"iXpXo.kXkXNXNXkXkXkXkXkXkXkXo.iXiXiXo.kXkXkXkXkXkXNXNXkXkXkXo.pXpXo.kXkXkXkXkXkXNXkXkXkXkXo.iXiXiXo.kXkXkXkXNXkXkXkXkXkXkXo.pXNX",
"pXiXo.o.kXNXkXkXkXkXNXNXkXkXo.pXiXpXo.kXkXkXkXNXkXkXkXkXkXkXo.pXpXo.kXkXkXkXkXNXkXNXkXkXkXo.pXiXpXo.kXkXkXkXkXNXkXkXkXkXo.o.NXNX",
"pXpXpXo.o.kXkXkXkXkXkXkXkXo.o.o.o.o.o.o.kXkXkXkXNXkXkXkXkXo.o.pXpXo.o.kXkXNXkXkXkXkXkXkXkXo.o.o.o.o.o.kXkXNXkXkXkXkXkXo.o.NXNXNX",
"pXpXiXpXo.o.kXkXkXkXkXkXo.o.kXkXkXkXkXo.o.kXkXNXkXkXkXkXo.o.kXpXpXpXo.o.kXkXkXkXNXkXkXkXo.o.kXkXkXkXo.o.kXkXkXkXkXkXo.o.kXpXNXpX",
"pXiXpXpXNXo.o.kXkXkXkXo.o.kXkXNXkXNXNXkXo.o.kXkXNXkXkXo.o.kXNXNXNXpXpXo.o.kXkXkXkXkXkXo.o.kXkXkXkXkXkXo.o.kXkXkXkXo.o.NXNXNXNXpX",
"pXiXiXpXpXNXo.o.kXkXo.o.kXkXkXkXkXkXkXNXkXo.o.kXkXkXo.o.NXNXNXNXpXNXpXNXo.o.kXkXkXkXo.o.kXkXNXkXkXkXkXkXo.o.kXkXo.o.kXkXNXkXiXpX",
"NXpXiXpXpXNXiXo.o.o.o.kXkXkXkXkXkXNXkXkXkXkXo.o.o.o.o.pXNXNXNXpXpXpXpXpXpXo.o.o.o.o.o.kXkXNXkXkXNXkXkXkXkXo.o.o.o.pXNXNXNXNXNXNX",
"pXpXNXiXNXNXNXNXNXNXo.kXkXkXkXNXkXkXkXkXkXkXo.pXpXNXNXpXNXpXNXNXiXpXpXNXpXpXpXNXNXo.kXkXkXkXkXkXkXkXkXkXkXo.kXNXiXpXkXNXNXNXNXpX",
"pXiXpXpXNXNXpXpXpXpXo.kXkXkXkXkXkXkXkXkXkXkXo.pXpXpXNXNXNXpXNXpXpXpXNXNXNXiXNXNXNXo.kXkXkXNXkXkXkXkXNXkXNXo.NXNXpXNXkXNXNXNXpXNX",
"pXNXpXpXNXNXpXNXiXpXo.o.kXkXNXkXkXkXNXkXkXkXo.pXpXpXkXNXpXpXpXpXNXpXpXNXpXNXNXNXNXo.kXkXkXkXNXkXkXkXkXkXo.o.pXpXNXNXNXkXNXNXNXNX",
"pXiXpXpXNXNXpXNXNXpXpXo.o.kXkXkXkXNXkXkXkXo.o.pXpXNXNXNXNXpXiXpXNXpXpXNXpXNXpXpXpXo.o.kXkXkXkXkXkXkXkXo.o.NXkXiXpXNXNXNXNXNXNXpX",
"pXpXpXNXpXNXpXpXkXpXpXNXo.o.kXNXNXNXNXkXo.o.pXpXpXpXNXNXNXpXpXNXpXpXpXNXNXNXpXNXpXpXo.o.kXkXNXkXkXkXo.o.pXNXpXpXpXNXNXpXNXNXkXNX",
"pXpXpXNXNXpXpXiXNXkXpXpXiXo.o.kXkXkXkXo.o.pXpXpXNXpXpXiXpXpXNXkXiXpXpXNXpXpXiXNXpXNXNXo.o.kXkXkXkXo.o.NXpXNXpXpXNXpXNXNXNXNXkXNX",
"iXpXiXNXiXNXNXNXNXNXpXNXiXNXo.o.kXkXo.o.pXpXNXpXpXpXpXpXNXpXNXNXNXNXpXNXiXpXpXiXNXNXpXNXo.o.kXkXo.o.kXpXpXpXNXNXpXpXNXpXNXNXkXkX",
"pXpXpXpXpXNXpXNXNXpXpXpXiXpXpXo.o.o.o.iXpXpXpXpXiXpXiXpXpXpXNXNXNXNXpXpXNXiXpXpXNXNXNXNXNXo.o.o.o.NXpXNXpXpXNXNXNXiXNXpXNXNXkXNX",
"pXpXpXpXNXNXNXiXNXNXpXpXNXNXNXpXNXNXpXpXiXpXpXNXiXpXpXpXNXNXpXNXNXNXiXNXpXpXNXNXNXNXNXpXNXNXkXkXNXpXpXpXNXNXpXpXNXNXNXkXpXNXNXkX",
"pXpXpXpXNXkXpXpXNXNXpXpXkXNXpXNXpXpXpXpXpXpXpXpXpXpXiXpXpXNXpXNXNXNXNXpXNXpXpXpXNXpXpXiXNXkXNXkXNXkXpXNXNXpXpXNXNXpXNXNXpXNXNXNX",
"pXNXpXiXpXpXpXpXNXNXpXNXNXpXNXo.o.o.o.NXNXiXpXiXNXpXpXiXNXNXNXNXNXNXkXNXpXpXpXiXNXpXpXpXpXo.o.o.o.NXNXpXNXNXpXpXpXNXNXiXNXpXpXNX",
"NXpXpXpXpXpXiXpXpXNXkXNXNXNXo.o.kXkXo.o.NXpXiXiXpXpXpXiXNXkXpXNXNXNXkXpXpXpXpXpXpXNXpXiXo.o.kXkXo.o.NXNXkXpXNXNXpXNXpXNXpXpXiXNX",
"pXNXpXpXpXpXiXpXpXpXNXkXNXo.o.kXkXkXkXo.o.pXNXpXpXpXpXpXpXpXNXpXNXpXNXpXpXiXiXpXpXpXpXo.o.kXkXkXkXo.o.NXNXNXNXNXpXNXpXpXpXpXNXpX",
"NXpXpXpXpXpXpXpXNXNXNXNXo.o.kXkXNXkXkXkXo.o.pXiXpXpXpXpXpXiXpXpXNXiXpXNXpXpXiXpXpXiXo.o.kXkXkXkXNXkXo.o.NXNXNXpXNXkXpXNXNXpXNXNX",
"NXpXiXpXpXpXNXNXNXNXkXo.o.kXkXkXNXkXkXkXkXo.o.pXiXpXpXpXiXpXpXNXpXpXpXNXpXNXpXpXpXo.o.kXkXkXkXNXkXkXkXo.o.NXpXNXNXNXNXpXNXiXNXNX",
"NXpXiXNXpXpXpXNXNXNXo.o.kXkXkXkXkXkXkXNXkXkXo.pXNXiXNXNXpXpXpXiXNXpXNXpXNXNXpXpXNXo.kXNXkXkXNXkXkXkXkXkXo.o.pXpXNXNXNXNXpXNXNXNX",
"pXpXpXpXNXiXpXNXNXNXo.kXkXkXNXkXkXkXkXkXkXkXo.pXNXpXpXNXpXpXNXNXNXpXpXpXNXNXpXpXNXo.kXkXkXkXNXkXkXNXkXkXkXo.pXNXpXNXNXpXNXNXNXNX",
"NXNXNXpXNXNXpXpXpXNXo.kXkXkXkXkXNXkXkXkXkXkXo.pXNXiXpXpXNXNXpXpXNXpXpXiXpXpXpXpXNXo.kXkXkXkXkXkXNXkXkXkXkXo.pXpXNXNXpXNXNXNXNXNX",
"pXNXNXpXNXNXpXo.o.o.o.kXkXkXkXNXkXkXkXkXkXo.o.o.o.o.o.pXiXNXpXpXNXpXNXpXpXo.o.o.o.o.kXkXkXkXNXkXkXNXkXkXkXo.o.o.o.pXpXpXNXNXNXpX",
"pXNXpXpXpXpXo.o.kXkXo.o.kXkXNXkXkXkXkXkXo.o.kXkXkXkXo.o.pXpXNXpXNXNXNXNXo.o.kXkXkXo.o.kXkXkXNXkXkXkXkXkXo.o.kXkXo.o.pXNXNXkXpXNX",
"pXiXiXpXpXo.o.kXkXkXkXo.o.kXkXkXkXkXNXo.o.kXNXkXkXkXkXo.o.NXpXpXkXNXkXo.o.kXkXkXkXkXo.o.kXkXNXkXkXkXkXo.o.kXkXkXkXo.o.NXNXNXNXNX",
"NXpXiXpXo.o.kXkXkXkXkXkXo.o.kXkXkXkXo.o.kXkXkXkXNXNXkXkXo.o.iXNXNXkXo.o.kXkXkXkXkXkXkXo.o.kXkXkXkXkXo.o.kXkXkXkXNXkXo.o.NXNXkXNX",
"kXNXNXo.o.kXkXNXkXkXNXkXkXo.o.o.o.o.o.kXNXNXNXkXkXkXNXkXkXo.o.kXNXo.o.kXkXkXkXkXkXkXkXkXo.o.o.o.o.o.o.kXkXkXNXkXkXkXkXo.o.NXpXiX",
"NXNXo.o.kXkXkXkXkXkXkXkXkXkXo.pXiXpXo.kXkXkXkXkXkXkXkXkXkXkXo.NXNXo.kXkXkXkXkXkXNXkXkXkXkXo.pXiXpXo.kXkXkXkXNXkXkXkXkXkXo.o.NXpX",
"pXNXo.kXkXkXNXkXNXNXkXNXkXkXo.iXiXiXo.kXkXkXkXkXkXkXkXkXkXkXo.NXNXo.kXkXkXkXkXkXkXkXNXkXkXo.iXiXiXo.kXkXkXkXkXNXkXkXkXkXkXo.NXpX",
"pXpXo.kXkXkXkXNXkXNXkXkXkXkXo.pXiXpXo.kXNXkXkXNXNXNXkXkXkXo.o.NXNXo.o.kXNXkXNXNXkXkXkXkXkXo.pXiXpXo.kXkXkXkXkXkXkXNXkXkXkXo.NXpX",
"o.o.o.kXkXkXkXkXkXkXkXkXkXo.o.o.o.o.o.kXkXkXkXkXNXkXNXkXo.o.pXNXNXpXo.o.kXkXkXkXkXkXkXkXkXo.o.o.o.o.kXkXkXNXNXkXNXkXkXkXkXo.o.o.",
"kXkXo.o.kXNXkXNXkXkXkXkXo.o.kXkXkXkXo.o.kXkXkXkXkXNXkXo.o.NXNXNXpXNXpXo.o.kXkXkXkXkXkXkXo.o.kXkXkXo.o.kXkXkXkXkXkXkXkXkXo.o.kXkX",
"kXkXkXo.o.kXkXkXkXkXkXo.o.kXkXkXkXNXkXo.o.kXkXkXkXkXo.o.NXNXNXNXpXpXNXNXo.o.kXkXkXkXkXo.o.kXkXkXkXkXo.o.kXkXkXkXkXkXkXo.o.kXkXkX",
"kXkXkXkXo.o.kXkXkXkXo.o.kXkXkXNXkXkXkXkXo.o.kXkXkXo.o.pXpXpXNXpXpXNXNXNXpXo.o.kXkXkXo.o.kXkXkXNXkXkXkXo.o.kXkXkXkXkXo.NXkXkXNXkX",
"kXkXkXNXkXo.o.o.o.o.o.kXkXkXkXkXkXkXkXkXkXo.o.o.o.o.pXiXNXNXNXpXNXNXNXNXNXpXo.o.o.o.o.kXkXkXkXkXkXkXNXkXo.o.o.o.o.o.o.kXkXkXkXkX",
"kXNXkXkXkXkXo.pXiXpXo.kXkXNXkXkXNXkXNXkXkXkXo.o.iXNXpXpXNXNXpXNXNXkXNXpXpXpXpXpXNXo.kXkXkXkXkXNXNXkXkXkXkXo.pXiXpXo.kXkXNXkXkXNX",
"kXNXkXkXkXkXo.iXiXiXo.kXkXkXkXkXkXNXkXkXkXkXo.pXpXpXpXpXpXNXpXkXNXNXNXpXNXpXpXiXpXo.kXkXkXkXkXNXNXkXkXkXkXo.iXiXiXo.kXkXkXkXkXkX",
"NXkXkXkXkXkXo.pXiXpXo.kXkXkXkXNXkXkXkXkXkXo.o.NXiXpXNXNXNXpXkXNXkXNXpXpXpXNXNXpXpXo.o.kXkXkXNXkXkXkXkXkXkXo.pXiXpXo.kXkXNXNXNXkX",
"NXkXkXkXkXo.o.o.o.o.o.kXkXkXkXkXkXNXkXkXo.o.iXpXpXpXNXNXiXNXNXkXNXpXNXpXpXpXNXNXpXNXo.o.kXkXkXkXkXkXNXkXkXo.o.o.o.o.kXkXkXkXNXkX",
"kXkXkXkXo.o.kXNXkXkXo.o.kXkXkXkXkXkXkXo.o.pXpXpXpXpXNXkXNXNXpXNXkXpXNXNXpXpXpXNXiXpXkXo.o.kXkXkXNXkXkXNXo.o.kXkXkXo.o.kXkXkXkXkX",
"kXkXkXo.o.kXkXkXkXkXkXo.o.kXkXkXkXkXo.o.pXpXpXpXiXpXNXpXpXpXpXNXpXpXNXNXNXpXpXNXNXNXpXNXo.o.kXkXkXkXkXo.o.kXNXkXkXkXo.o.kXkXkXkX",
"kXkXo.o.kXkXkXkXkXkXNXkXo.o.kXkXkXo.o.pXiXpXpXpXpXpXpXiXNXpXNXNXNXNXpXNXNXNXiXpXNXNXNXpXNXo.o.kXkXkXo.NXkXkXkXkXNXkXkXo.o.kXkXkX",
"o.o.o.kXkXkXkXkXkXNXkXkXkXo.o.o.o.o.iXpXpXpXNXNXiXpXpXpXiXpXNXpXNXpXpXpXNXNXNXNXNXpXNXpXNXNXo.o.o.o.o.kXkXNXNXkXkXNXkXkXo.o.o.o.",
"iXpXo.kXkXkXkXkXNXkXkXNXkXkXo.pXNXiXNXpXpXpXNXNXpXpXpXNXpXpXpXNXiXpXpXNXpXpXpXpXpXNXNXpXkXNXNXkXNXo.kXNXkXNXkXkXkXkXkXkXkXo.pXiX",
"iXiXo.kXkXkXkXkXkXkXkXkXkXkXo.pXpXiXiXpXpXpXNXNXNXpXpXpXNXpXNXpXpXNXNXNXNXpXpXNXiXNXNXNXNXNXkXNXpXo.kXkXkXkXkXNXkXkXNXkXNXo.iXiX"
};
